<svg width="332" height="274" viewBox="0 0 332 274" fill="none" xmlns="http://www.w3.org/2000/svg">
<g clip-path="url(#clip0)">
<path d="M331.4 125.8C331.4 144.4 324.2 156.9 311.5 171.4C298.8 185.4 280.7 201.5 258.9 216.8C234.9 233.5 206.5 245.8 176 249.6C143.4 253.6 113.2 251.4 88.3001 243.5C67.9001 236.8 45.8001 225.6 28.9001 204.3C11.9001 183.8 0.100098 153.3 0.100098 128.1C0.100098 106.7 5.7001 92.1 15.5001 77.5C25.3001 63.3 39.2001 49.2 55.9001 36.6C89.1001 10.4 133.1 -5.89998 176 2.00002C218.9 9.50002 257.7 21.7 285.9 42.2C300 52.6 311.3 65.5 319.2 80.6C327 95.4 331.4 112.4 331.4 125.8Z" fill="#1C272B"/>
<path d="M127.3 188.7C142.1 186 161.9 191.4 169.8 205.2C174.5 213.4 174 226.3 163.8 230.1C152.5 234.3 145.7 220.9 146 211.6C146.3 198.9 156.7 188.7 168.7 185.9C180.4 183.2 189.6 189.3 199.4 194.5C206.9 198.4 214.7 201.1 223.2 199.2C230.1 197.7 236.4 193.7 241 188.4C251.9 175.9 255.1 156.9 249.5 141.4C248.8 139.6 245.9 140.4 246.6 142.2C253.1 160.1 247.2 184.8 229.3 193.8C217.4 199.8 206.5 195 195.7 189C186.3 183.8 177.2 180.2 166.4 183.3C155.9 186.3 147 194.3 144 204.9C141.7 213.1 143.4 223.2 149.6 229.4C155.6 235.4 165 235 170.9 228.9C176.6 222.9 176.9 213.9 173.8 206.5C166.7 189.4 143.4 182.7 126.5 185.8C124.6 186.2 125.4 189.1 127.3 188.7Z" fill="#505150"/>
<path d="M100.8 110.8C105.5 110.7 108.7 111.1 109.5 111.3L111.7 111.6L107.9 137.6L106 137.4H103.5V137.2C102.8 137.2 101.9 137.1 100.9 137.2C94.9003 137.3 85.7003 138.4 75.4003 143.1C62.7003 149 52.0003 159 43.7003 172.6C41.4003 176.6 37.1003 179.1 32.5003 179.1C30.1003 179.1 27.8003 178.5 25.7003 177.3C19.4003 173.6 17.3003 165.6 21.0003 159.3C21.1003 159.2 21.2003 159 21.3003 158.9C38.7003 130.4 61.5003 119 77.5003 114.3C87.1003 111.6 95.5003 110.9 100.8 110.8Z" fill="#ECE5E0"/>
<path opacity="0.4" d="M33.5161 174.795C34.8966 174.779 36.008 174.094 35.9984 173.266C35.9887 172.438 34.8618 171.779 33.4812 171.795C32.1006 171.811 30.9892 172.496 30.9989 173.324C31.0085 174.152 32.1355 174.811 33.5161 174.795Z" fill="white"/>
<path d="M101.1 144.2C106.1 146 114.2 148.4 124.2 149.2C140.8 150.6 166.2 147.9 192.6 127.4C192.7 127.3 192.9 127.2 193 127.1C198.6 122.5 199.5 114.2 194.9 108.6C193.4 106.7 191.4 105.3 189.2 104.5C184.9 102.9 180 103.7 176.4 106.6C163.7 116.4 150.2 122 136.3 123C125 123.9 115.9 121.6 110.3 119.5C109.3 119.2 108.5 118.8 107.9 118.5L108 118.3L105.6 117.4L103.9 116.5L91.2002 139.5L93.2002 140.6C93.9002 141.1 96.7002 142.6 101.1 144.2Z" fill="#ECE5E0"/>
<path d="M41.4002 240.6L67.1002 148.8L72.5002 131.6C77.0002 117.4 90.1002 108.5 103.5 110.6L114.1 112.3C127.5 114.5 137.2 127 136.9 142L130.2 258C130 266.8 122.8 273.7 114 273.6C105.2 273.4 98.3002 266.2 98.4002 257.4L98.7002 210.2C98.5002 207.3 96.3002 205 93.4002 204.5C90.6002 204 87.8002 205.6 86.6002 208.2L71.6002 250.1C69.0002 258.5 60.1002 263.1 51.7002 260.5C43.5002 257.9 38.8002 249 41.4002 240.6Z" fill="#EDE7E2"/>
<path d="M108.388 133.566L110.194 132.34C112 131.114 112.492 128.814 111.266 127.008L109.084 123.69C107.857 121.884 105.557 121.392 103.751 122.619L100.434 124.801C98.6281 126.027 98.1358 128.327 99.3621 130.133L100.214 131.414C100.589 131.939 100.565 132.504 100.374 133.005L89.4011 169.394C89.274 169.728 89.314 170.126 89.5847 170.42L95.008 178.797C95.4858 179.553 96.3851 179.704 96.9737 179.163L104.666 172.522C104.96 172.251 105.087 171.917 105.215 171.583L107.545 134.776C107.672 134.442 108.03 134.004 108.388 133.566Z" fill="#ED8370"/>
<path opacity="0.3" d="M148.805 96.2169C152.3 74.5151 138.646 54.2671 118.307 50.9916C97.9683 47.7162 78.6474 62.6537 75.1524 84.3555C71.6575 106.057 85.3119 126.305 105.651 129.581C125.989 132.856 145.31 117.919 148.805 96.2169Z" fill="#CBC6C1"/>
<path d="M120.498 40.9538L117.319 55.9203L120.84 56.6684L124.02 41.7019L120.498 40.9538Z" fill="#726B65"/>
<path d="M73.7004 94.5001L68.7004 92.3001C67.0004 91.6001 65.9004 89.8001 66.0004 88.0001L66.3004 83.3001C66.4004 81.4001 67.7004 79.8001 69.5004 79.3001L74.7004 77.7001L73.7004 94.5001Z" fill="#726B65"/>
<path d="M145.1 109.6L150.5 109.7C152.4 109.7 154.1 108.6 154.7 106.8L156.4 102.4C157.1 100.6 156.6 98.7 155.1 97.4L151 93.9L145.1 109.6Z" fill="#726B65"/>
<path d="M112.3 128.3C134.281 128.3 152.1 110.481 152.1 88.5001C152.1 66.5191 134.281 48.7001 112.3 48.7001C90.3196 48.7001 72.5005 66.5191 72.5005 88.5001C72.5005 110.481 90.3196 128.3 112.3 128.3Z" fill="#ECE5E0"/>
<path d="M123.2 42.9001C126.404 42.9001 129 40.3033 129 37.1C129 33.8968 126.404 31.3 123.2 31.3C119.997 31.3 117.4 33.8968 117.4 37.1C117.4 40.3033 119.997 42.9001 123.2 42.9001Z" fill="#EF6A37"/>
<path opacity="0.4" d="M125.661 33.5682C125.758 33.0245 125.131 32.4578 124.262 32.3025C123.392 32.1471 122.608 32.4619 122.511 33.0056C122.414 33.5493 123.04 34.1159 123.91 34.2713C124.78 34.4266 125.564 34.1118 125.661 33.5682Z" fill="white"/>
<path d="M122.7 40.5C120.3 40 118.3 38.2 117.5 35.9C116.9 39.1 119 42.1 122.1 42.7C124.9 43.2 127.7 41.7 128.7 39C127 40.4 124.8 41 122.7 40.5Z" fill="#DF5B36"/>
<g opacity="0.3">
<g opacity="0.3">
<g opacity="0.3">
<path opacity="0.3" d="M158.3 98.5001C158.3 98.5001 109.8 120.9 63.9004 83.7001L60.4004 129.1L167.3 130.9L158.3 98.5001Z" fill="#ECE5E0"/>
</g>
</g>
</g>
<path d="M143.2 99.5001C140.5 112.3 123.3 123.3 105.7 119.5C88.1002 115.7 76.9002 98.8001 79.6002 86.0001C82.3002 73.2001 85.2002 62.9001 116.3 69.5001C145.9 75.9001 145.9 86.7001 143.2 99.5001Z" fill="#B2CAD4"/>
<path opacity="0.34" d="M97.7001 75.4001C100 73.9001 97.9001 70.0001 95.2001 70.7001C87.2001 72.5001 84.2001 79.2001 82.6001 86.9001C81.6001 91.6001 82.7001 96.8001 85.3001 101.7C85.5001 102.1 86.0001 102.2 86.3001 102C86.6001 101.9 86.7001 101.6 86.7001 101.3C86.1001 91.2001 87.6001 82.2001 97.7001 75.4001Z" fill="#EFF3F7"/>
<path opacity="0.4" d="M183.782 111.907C185.673 110.876 186.713 109.136 186.105 108.021C185.497 106.905 183.471 106.837 181.58 107.868C179.689 108.899 178.649 110.638 179.257 111.754C179.864 112.869 181.89 112.937 183.782 111.907Z" fill="white"/>
<path fill-rule="evenodd" clip-rule="evenodd" d="M225.1 120.9C207.3 117.9 195.3 101 198.3 83.2001C201.3 65.4001 218.2 53.3001 236 56.4001C253.8 59.4001 265.8 76.3001 262.8 94.1001C259.8 111.9 242.9 123.9 225.1 120.9ZM241.2 26.2001C206.7 20.4001 174 43.6001 168.1 78.0001C162.2 112.4 185.4 145.2 219.9 151C254.4 156.9 287.1 133.7 292.9 99.2001C298.8 64.8001 275.6 32.1001 241.2 26.2001Z" fill="white"/>
<path fill-rule="evenodd" clip-rule="evenodd" d="M220.9 145.4C189.5 140.1 168.4 110.3 173.7 78.9001C179 47.5001 208.8 26.4001 240.2 31.7001C271.6 37.0001 292.7 66.8001 287.4 98.2001C282 129.7 252.3 150.8 220.9 145.4ZM241.2 26.2001C206.7 20.4001 174 43.6001 168.1 78.0001C162.2 112.4 185.4 145.2 219.9 151C254.4 156.9 287.1 133.7 292.9 99.2001C298.8 64.8001 275.6 32.1001 241.2 26.2001Z" fill="#E0E0E0" fill-opacity="0.15"/>
<path opacity="0.34" fill-rule="evenodd" clip-rule="evenodd" d="M225.1 120.9C207.3 117.9 195.3 101 198.3 83.2001C201.3 65.4001 218.2 53.3001 236 56.4001C253.8 59.4001 265.8 76.3001 262.8 94.1001C259.8 111.9 242.9 123.9 225.1 120.9ZM237 50.8001C216.1 47.2001 196.2 61.3001 192.7 82.2001C189.2 103.1 203.2 123 224.1 126.5C245 130 264.9 116 268.4 95.1001C271.9 74.2001 257.9 54.3001 237 50.8001Z" fill="#E0E0E0"/>
<path fill-rule="evenodd" clip-rule="evenodd" d="M200.7 94.7L168.6 91.8C166.7 91.6 165.4 89.9 165.7 88.1L169.2 67.8C169.5 66 171.3 64.8 173.2 65.2L204.4 73.1L200.7 94.7Z" fill="#FF6C37"/>
<mask id="mask0" mask-type="alpha" maskUnits="userSpaceOnUse" x="165" y="64" width="32" height="33">
<path fill-rule="evenodd" clip-rule="evenodd" d="M169.7 64.8L196.7 69.4L192.1 96.3L165.1 91.7001L169.7 64.8Z" fill="white"/>
</mask>
<g mask="url(#mask0)">
<path fill-rule="evenodd" clip-rule="evenodd" d="M196.4 71.3001L173.1 65.4001C171.3 64.9001 169.4 66.1001 169.1 68.0001L165.6 88.5001C165.3 90.4001 166.6 92.1001 168.5 92.3001L192.4 94.4001C191.9 90.6001 191.9 86.6001 192.6 82.6001C193.3 78.6001 194.6 74.8001 196.4 71.3001Z" fill="#FF6C37"/>
</g>
<path fill-rule="evenodd" clip-rule="evenodd" d="M202.1 72.7L196.4 71.3C194.6 74.8 193.3 78.5 192.6 82.6C191.9 86.6 191.9 90.6 192.4 94.5L198.2 95L200.5 95.2L204.2 73.3L202.1 72.7Z" fill="#EF4104"/>
<path fill-rule="evenodd" clip-rule="evenodd" d="M224.5 58.7L227.4 26.6C227.6 24.7 229.3 23.4 231.1 23.7L251.4 27.2C253.2 27.5 254.4 29.3 254 31.2L246.1 62.4L224.5 58.7Z" fill="#FF6C37"/>
<mask id="mask1" mask-type="alpha" maskUnits="userSpaceOnUse" x="223" y="23" width="33" height="32">
<path fill-rule="evenodd" clip-rule="evenodd" d="M228.2 23.3L255.1 27.8L250.5 54.9001L223.6 50.3L228.2 23.3Z" fill="white"/>
</mask>
<g mask="url(#mask1)">
<path fill-rule="evenodd" clip-rule="evenodd" d="M248.6 54.6L254.5 31.3C255 29.5 253.8 27.6 251.9 27.3L231.4 23.8C229.5 23.5 227.8 24.8 227.6 26.7L225.5 50.6C229.3 50.1 233.3 50.1 237.3 50.8C241.4 51.5 245.1 52.8 248.6 54.6Z" fill="#FF6C37"/>
</g>
<path fill-rule="evenodd" clip-rule="evenodd" d="M247.2 60.3001L248.6 54.6001C245.1 52.8001 241.4 51.5001 237.3 50.8001C233.3 50.1001 229.3 50.1001 225.4 50.6001L224.9 56.4001L224.7 58.7001L246.6 62.4001L247.2 60.3001Z" fill="#EF4104"/>
<path fill-rule="evenodd" clip-rule="evenodd" d="M260.4 82.6001L292.5 85.5001C294.4 85.7001 295.7 87.4001 295.4 89.2001L291.9 109.5C291.6 111.3 289.8 112.5 287.9 112.1L256.7 104.2L260.4 82.6001Z" fill="#FF6C37"/>
<mask id="mask2" mask-type="alpha" maskUnits="userSpaceOnUse" x="264" y="81" width="32" height="33">
<path fill-rule="evenodd" clip-rule="evenodd" d="M268.9 81.7001L295.9 86.3001L291.3 113.1L264.3 108.5L268.9 81.7001Z" fill="white"/>
</mask>
<g mask="url(#mask2)">
<path fill-rule="evenodd" clip-rule="evenodd" d="M264.6 106.6L287.9 112.5C289.7 113 291.6 111.8 291.9 109.9L295.4 89.4001C295.7 87.5001 294.4 85.8001 292.5 85.6001L268.6 83.5001C269.1 87.3001 269.1 91.3001 268.4 95.3001C267.7 99.4001 266.4 103.2 264.6 106.6Z" fill="#FF6C37"/>
</g>
<path fill-rule="evenodd" clip-rule="evenodd" d="M258.9 105.2L264.6 106.6C266.4 103.1 267.7 99.4 268.4 95.3C269.1 91.3 269.1 87.3 268.6 83.4L262.7 83L260.4 82.8L256.7 104.7L258.9 105.2Z" fill="#EF4104"/>
<path fill-rule="evenodd" clip-rule="evenodd" d="M236.6 118.5L233.7 150.6C233.5 152.5 231.8 153.8 230 153.5L209.7 150C207.9 149.7 206.7 147.9 207.1 146L215 114.8L236.6 118.5Z" fill="#FF6C37"/>
<mask id="mask3" mask-type="alpha" maskUnits="userSpaceOnUse" x="206" y="122" width="33" height="33">
<path fill-rule="evenodd" clip-rule="evenodd" d="M211.4 122.5L238.2 127.1L233.6 154.1L206.8 149.5L211.4 122.5Z" fill="white"/>
</mask>
<g mask="url(#mask3)">
<path fill-rule="evenodd" clip-rule="evenodd" d="M213.3 122.8L207.4 146.1C206.9 147.9 208.1 149.8 210 150.1L230.5 153.6C232.4 153.9 234.1 152.6 234.3 150.7L236.4 126.8C232.6 127.3 228.6 127.3 224.6 126.6C220.5 125.9 216.7 124.6 213.3 122.8Z" fill="#FF6C37"/>
</g>
<path fill-rule="evenodd" clip-rule="evenodd" d="M214.7 117.1L213.3 122.8C216.8 124.6 220.5 125.9 224.6 126.6C228.6 127.3 232.6 127.3 236.5 126.8L237 121L237.2 118.7L215.3 115L214.7 117.1Z" fill="#EF4104"/>
<path opacity="0.129" d="M238.7 38.8001C239.9 39.0001 240.6 40.1001 240.4 41.3001C240.2 42.5001 239.1 43.2001 237.9 43.0001C236.1 42.7001 234.3 42.5001 232.5 42.4001C231.3 42.3001 230.4 41.3001 230.5 40.2001C230.6 39.0001 231.6 38.1001 232.7 38.2001C234.7 38.2001 236.7 38.4001 238.7 38.8001ZM201.8 46.9001C202.8 46.2001 204.1 46.5001 204.8 47.4001C205.5 48.4001 205.2 49.7001 204.3 50.4001C202.8 51.4001 201.4 52.5001 200 53.7001C199.1 54.5001 197.8 54.4001 197 53.5001C196.2 52.6001 196.3 51.3001 197.2 50.5001C198.6 49.3001 200.2 48.0001 201.8 46.9001ZM181.1 78.5001C181.3 77.3001 182.5 76.6001 183.6 76.8001C184.8 77.0001 185.5 78.2001 185.3 79.3001C185.2 79.7001 185.1 80.1001 185.1 80.6001C184.9 82.0001 184.7 83.4001 184.6 84.7001C184.5 85.9001 183.5 86.8001 182.3 86.7001C181.1 86.6001 180.2 85.6001 180.3 84.4001C180.4 82.9001 180.6 81.4001 180.9 79.9001C180.9 79.4001 181 78.9001 181.1 78.5001ZM188.2 115.5C187.6 114.5 187.8 113.2 188.8 112.5C189.8 111.9 191.1 112.1 191.8 113.1C192.8 114.6 193.9 116.1 195 117.5C195.8 118.4 195.6 119.8 194.7 120.5C193.8 121.3 192.4 121.1 191.7 120.2C190.4 118.8 189.3 117.2 188.2 115.5ZM219.1 137.1C218 136.8 217.2 135.7 217.5 134.5C217.8 133.4 218.9 132.6 220.1 132.9C220.9 133.1 221.8 133.3 222.6 133.4C223.6 133.6 224.5 133.7 225.5 133.8C226.7 133.9 227.5 135 227.4 136.1C227.3 137.3 226.2 138.1 225.1 138C224.1 137.9 223 137.7 222 137.6C220.9 137.5 220 137.3 219.1 137.1ZM256.4 131C255.4 131.6 254.1 131.3 253.5 130.3C252.9 129.3 253.2 128 254.2 127.4C255.7 126.5 257.2 125.4 258.7 124.3C259.6 123.6 261 123.7 261.7 124.7C262.4 125.6 262.3 127 261.3 127.7C259.7 128.9 258.1 130 256.4 131ZM278.8 100.7C278.5 101.8 277.3 102.5 276.2 102.2C275.1 101.9 274.4 100.7 274.7 99.6001C275 98.4001 275.3 97.1001 275.5 95.9001C275.6 95.4001 275.7 94.8001 275.7 94.3001C275.9 93.1001 276.9 92.3001 278.1 92.5001C279.3 92.7001 280.1 93.7001 279.9 94.9001C279.8 95.5001 279.7 96.1001 279.6 96.7001C279.5 98.0001 279.2 99.4001 278.8 100.7ZM273.8 63.3001C274.4 64.3001 274 65.6001 273 66.2001C272 66.8001 270.7 66.4001 270.1 65.4001C269.2 63.8001 268.2 62.3001 267.1 60.8001C266.4 59.9001 266.6 58.5001 267.5 57.8001C268.4 57.1001 269.8 57.3001 270.5 58.2001C271.7 59.9001 272.8 61.6001 273.8 63.3001ZM244.1 40.0001C245.2 40.3001 245.9 41.5001 245.6 42.6001C245.3 43.7001 244.1 44.4001 243 44.1001C241.4 43.6001 239.7 43.3001 238 43.0001C236.8 42.8001 236.1 41.7001 236.3 40.5001C236.5 39.3001 237.6 38.6001 238.8 38.8001C240.5 39.1001 242.3 39.5001 244.1 40.0001Z" fill="#E0E0E0"/>
<path fill-rule="evenodd" clip-rule="evenodd" d="M304.3 122.8L301.6 130.2L294.2 132.9L301.6 135.6L304.3 143L307 135.6L314.4 132.9L307 130.2L304.3 122.8Z" fill="#F36C3D"/>
<path fill-rule="evenodd" clip-rule="evenodd" d="M211.4 199.2L208.7 206.6L201.3 209.3L208.7 212L211.4 219.4L214.1 212L221.5 209.3L214.1 206.6L211.4 199.2Z" fill="#6D7F91"/>
<path fill-rule="evenodd" clip-rule="evenodd" d="M34.1 71.4L31.4 78.8L24 81.5L31.4 84.2L34.1 91.6L36.8 84.2L44.2 81.5L36.8 78.8L34.1 71.4Z" fill="#7D728E"/>
<path fill-rule="evenodd" clip-rule="evenodd" d="M158.4 14.5L155.9 21.2L149.2 23.7L155.9 26.2L158.4 32.9L160.9 26.2L167.6 23.7L160.9 21.2L158.4 14.5Z" fill="#CDDCE6"/>
<path d="M143.2 99.5C144.3 94.3 145 89.4 143.4 85.1C140.7 94.7 128.8 124.1 88.6001 110.2C93.1001 114.6 98.9001 118.1 105.8 119.5C123.2 123.3 140.4 112.3 143.2 99.5Z" fill="#A2B9C7"/>
</g>
<defs>
<clipPath id="clip0">
<rect width="331.4" height="273.4" fill="white"/>
</clipPath>
</defs>
</svg>
