<svg width="623" height="385" viewBox="0 0 623 385" fill="none" xmlns="http://www.w3.org/2000/svg">
<path opacity="0.5" fill-rule="evenodd" clip-rule="evenodd" d="M28 355L29.9 349.9L35 348L29.9 346.1L28 341L26.1 346.1L21 348L26.1 349.9L28 355Z" fill="#7D728E"/>
<path opacity="0.5" fill-rule="evenodd" clip-rule="evenodd" d="M182.4 385L184.5 379.2L190.3 377.1L184.5 375L182.4 369.2L180.3 375L174.5 377.1L180.3 379.2L182.4 385Z" fill="#CDDCE6"/>
<path opacity="0.5" fill-rule="evenodd" clip-rule="evenodd" d="M12.4 32.8L15.7 23.7L24.8 20.4L15.7 17.1L12.4 8L9.10004 17.1L0 20.4L9.10004 23.7L12.4 32.8Z" fill="#CDDCE6"/>
<path opacity="0.5" fill-rule="evenodd" clip-rule="evenodd" d="M581 200L582.9 194.9L588 193L582.9 191.1L581 186L579.1 191.1L574 193L579.1 194.9L581 200Z" fill="#7D728E"/>
<path opacity="0.5" fill-rule="evenodd" clip-rule="evenodd" d="M616 348L617.9 342.9L623 341L617.9 339.1L616 334L614.1 339.1L609 341L614.1 342.9L616 348Z" fill="#7D728E"/>
<path opacity="0.5" fill-rule="evenodd" clip-rule="evenodd" d="M12.5 211L14.5 205.5L20 203.5L14.5 201.5L12.5 196L10.5 201.5L5 203.5L10.5 205.5L12.5 211Z" fill="#F99D78"/>
<path opacity="0.5" fill-rule="evenodd" clip-rule="evenodd" d="M343.9 15.8L346 10L351.8 7.9L346 5.8L343.9 0L341.8 5.8L336 7.9L341.8 10L343.9 15.8Z" fill="#CDDCE6"/>
<path fill-rule="evenodd" clip-rule="evenodd" d="M151.7 221.4L153.5 216.5L158.4 214.7L153.5 212.9L151.7 208L149.9 212.9L145 214.7L149.9 216.5L151.7 221.4Z" fill="#F99D78"/>
<path d="M86.2077 115.087C134.294 115.338 184.805 110.737 225.95 83.5535C242.508 72.68 259.569 57.6243 266.175 38.3865C268.935 30.3569 269.688 21.0725 265.506 13.3774C261.492 5.93324 253.715 1.66747 245.435 1.08197C225.616 -0.339953 212.319 16.9741 208.472 34.6226C205.796 46.8344 206.799 59.3808 207.97 71.6763C209.057 83.8045 209.977 96.0163 209.894 108.228C209.81 121.193 208.555 134.157 205.378 146.704C203.872 152.559 202.116 158.748 199.273 164.185C196.848 168.785 192.415 174.724 186.812 175.142C179.704 175.644 177.864 167.363 178.198 161.927C178.533 156.239 180.791 150.969 184.136 146.369C190.408 137.67 200.193 131.648 210.144 128.135C255.889 111.825 306.986 134.91 337.175 170.04C338.262 171.295 340.019 169.454 338.931 168.283C312.84 137.921 272.196 116.843 231.386 120.942C212.737 122.782 192.164 129.975 181.209 146.202C176.693 152.893 173.766 162.428 176.61 170.374C179.453 178.404 187.816 179.575 194.088 174.557C202.2 168.2 205.21 156.992 207.636 147.456C210.646 135.663 211.901 123.535 212.151 111.407C212.402 98.6928 211.566 86.0628 210.479 73.4328C209.308 60.4682 207.97 47.0854 211.064 34.2044C213.657 23.4145 219.678 12.4574 229.797 7.02059C238.578 2.33661 250.62 2.25297 258.481 8.86073C267.513 16.4722 267.011 29.0186 263.248 39.0557C259.234 49.8456 251.624 58.879 243.345 66.7414C201.614 106.555 141.151 113.079 86.1241 112.828C84.5351 112.577 84.5351 115.087 86.2077 115.087Z" fill="#505150"/>
<path opacity="0.12" d="M353.148 249.545C351.254 303.836 393.723 349.384 448.005 351.278C502.288 353.173 547.827 310.696 549.721 256.405C551.615 202.113 509.146 156.565 454.864 154.671C400.582 152.776 355.042 195.253 353.148 249.545Z" fill="#DFD9CE"/>
<path d="M414.842 174.381C371.518 194.587 352.79 246.129 373.012 289.502C393.234 332.876 444.749 351.657 488.073 331.451C531.397 311.245 550.125 259.703 529.903 216.329C509.681 172.956 458.167 154.175 414.842 174.381Z" fill="#759AA4"/>
<mask id="mask0" mask-type="alpha" maskUnits="userSpaceOnUse" x="364" y="166" width="175" height="174">
<path d="M414.842 174.381C371.518 194.587 352.79 246.129 373.012 289.502C393.234 332.876 444.749 351.657 488.073 331.451C531.397 311.245 550.125 259.703 529.903 216.329C509.681 172.956 458.167 154.175 414.842 174.381Z" fill="white"/>
</mask>
<g mask="url(#mask0)">
<path opacity="0.46" fill-rule="evenodd" clip-rule="evenodd" d="M370.599 298.296C327.17 217.217 499.748 277.839 533.814 211.376C509.044 177.246 505.501 267.219 363.421 209.077C393.616 61.0828 530.503 184.68 530.503 184.68C530.503 184.68 592.127 279.053 477.651 275.962C363.251 272.836 475.965 355.471 531.301 289.702C586.636 223.933 547.861 308.004 504.889 338.936C461.84 369.904 414.029 379.374 370.599 298.296Z" fill="#4F6879"/>
</g>
<path d="M117.998 82.0675L75.2552 93.9273L35.6836 117.026C32.1676 119.095 30.9956 123.508 33.0638 127.024C35.132 130.541 39.5442 131.713 43.0602 129.645L65.3278 116.682L88.0781 178.256C89.7327 182.669 94.4895 185.151 99.1085 183.91C104.003 182.6 106.899 177.566 105.52 172.671L105.313 171.912L96.7646 140.677L115.585 167.224L115.861 167.637C118.481 171.361 123.582 172.464 127.512 170.12C131.717 167.637 133.096 162.19 130.614 158.053L97.9366 102.891L121.928 96.2027C122.341 96.0648 122.755 95.9269 123.169 95.7201C126.271 94.2031 127.994 90.6176 127.029 87.17C125.926 83.3087 121.928 81.0333 117.998 82.0675Z" fill="#EDE7E1"/>
<path d="M79.7368 100.202L80.1505 98.9608C80.5641 97.8575 80.0126 96.6164 78.8406 96.2027L76.7724 95.4442C75.6693 95.0305 74.4284 95.5821 74.0148 96.7543L73.2564 98.8229C72.8428 99.9261 73.3943 101.167 74.5663 101.581L75.4625 101.926C75.7383 102.064 76.014 102.27 76.083 102.615L83.2528 122.818C83.3217 123.025 83.4596 123.163 83.6664 123.232L88.9059 125.301C89.3195 125.438 89.8021 125.232 89.871 124.749L91.1809 119.095C91.2498 118.888 91.1809 118.681 91.112 118.543L79.8058 101.029C79.6679 100.822 79.5989 100.478 79.7368 100.202Z" fill="#ED8370"/>
<path d="M56.9862 96.6165L52.4362 97.4439C51.8157 97.5818 51.1263 97.2371 50.7816 96.6854L48.5755 93.031C48.2308 92.4793 48.2997 91.7898 48.6444 91.2382L51.471 87.5837C52.1604 86.6874 53.4703 86.7563 54.0907 87.7216L58.0203 94.2031C58.6408 95.1685 58.0892 96.4096 56.9862 96.6165Z" fill="#726B65"/>
<path d="M88.0792 81.6536L91.5262 78.6197C92.0088 78.206 92.2156 77.5165 91.9398 76.8959L90.4921 72.8967C90.2853 72.2761 89.6648 71.8624 89.0443 71.8624L84.4254 71.7935C83.3223 71.7935 82.495 72.8967 82.9087 73.931L85.5284 81.0331C85.8731 82.0674 87.183 82.4121 88.0792 81.6536Z" fill="#726B65"/>
<path d="M58.31 57.7271L56.8196 58.4458L59.3945 63.7874L60.8849 63.0687L58.31 57.7271Z" fill="#726B65"/>
<path d="M56.8487 59.4534C58.3717 59.4534 59.6063 58.2186 59.6063 56.6953C59.6063 55.1721 58.3717 53.9373 56.8487 53.9373C55.3257 53.9373 54.0911 55.1721 54.0911 56.6953C54.0911 58.2186 55.3257 59.4534 56.8487 59.4534Z" fill="#DD5C3C"/>
<path d="M55.6779 54.1414C54.437 54.7619 53.8165 56.141 54.2302 57.3821C54.9885 58.4854 56.4362 58.8301 57.6772 58.2785C58.9181 57.6579 59.5386 56.2789 59.1249 55.0378C58.3666 54.0035 56.9188 53.5898 55.6779 54.1414Z" fill="#EE6B40"/>
<path d="M56.3756 55.6906C56.7871 55.4922 57.027 55.1366 56.9112 54.8965C56.7954 54.6564 56.368 54.6226 55.9564 54.8211C55.5448 55.0195 55.305 55.3751 55.4208 55.6152C55.5365 55.8553 55.964 55.8891 56.3756 55.6906Z" fill="#F18258"/>
<path d="M68.7061 101.029C79.6716 101.029 88.5609 92.1381 88.5609 81.1707C88.5609 70.2033 79.6716 61.3125 68.7061 61.3125C57.7406 61.3125 48.8513 70.2033 48.8513 81.1707C48.8513 92.1381 57.7406 101.029 68.7061 101.029Z" fill="#DFD8D1"/>
<path d="M68.2928 100.132C79.2583 100.132 88.1475 91.2414 88.1475 80.274C88.1475 69.3066 79.2583 60.4158 68.2928 60.4158C57.3273 60.4158 48.438 69.3066 48.438 80.274C48.438 91.2414 57.3273 100.132 68.2928 100.132Z" fill="#EDE7E1"/>
<path d="M82.9766 73.5171C79.3228 65.8634 72.8424 67.863 64.2249 72.0001C55.6763 76.1373 50.0921 79.9296 53.746 87.6523C57.3998 95.3749 65.9484 99.2363 75.1864 94.7544C84.4933 90.3414 86.6994 81.2397 82.9766 73.5171Z" fill="#B3CAD3"/>
<path d="M76.1517 68.3455C80.9086 79.4468 81.0465 89.7896 72.0842 95.9953C73.1183 95.7195 74.1524 95.3058 75.2555 94.7542C84.4935 90.3412 86.6995 81.2395 82.9768 73.5169C81.3222 70.0003 78.9782 68.4834 76.1517 68.3455Z" fill="#A3BAC7"/>
<path d="M67.5344 93.0305C63.7427 91.6515 60.5715 88.6176 58.6411 84.6184C58.2275 83.722 57.8828 82.8946 57.676 82.0671C57.3313 80.6191 55.2631 80.5502 54.8494 81.9982C54.5047 83.3772 54.7805 84.8942 55.6767 86.6869C57.3313 90.0656 59.951 92.5479 63.1223 93.72C64.57 94.2717 66.1556 94.5475 67.7413 94.4785C68.4996 94.4785 68.6375 93.3753 67.9481 93.1684C67.8791 93.0995 67.6723 93.0995 67.5344 93.0305Z" fill="#CBDBE2"/>
<path d="M214.719 329.272L180.933 336.215C180.682 336.298 180.515 336.131 180.431 335.88C180.431 335.88 180.348 335.796 180.431 335.713L184.613 301.503C186.285 287.702 198.83 277.748 212.879 279.421C226.678 281.094 236.629 293.641 234.957 307.609C233.535 318.566 225.089 327.098 214.719 329.272Z" fill="#F27766"/>
<path d="M218.9 314.3L196.823 318.817C196.655 318.817 196.572 318.733 196.488 318.65C196.488 318.65 196.488 318.65 196.405 318.566L199.081 296.15C200.168 287.116 208.363 280.592 217.562 281.68C226.762 282.767 233.117 290.964 232.03 300.165C231.194 307.358 225.674 312.795 218.9 314.3Z" fill="#F69C79"/>
<path d="M222.413 301.838L209.952 304.347C209.869 304.431 209.785 304.347 209.785 304.18L211.29 291.633C211.876 286.531 216.642 282.851 221.66 283.604C226.761 284.189 230.441 288.957 229.688 293.975C229.354 297.907 226.343 301.085 222.413 301.838Z" fill="#E7DFCA"/>
<path d="M472.234 36.4628C464.624 29.1023 423.562 45.6635 410.767 58.9627L451.996 98.6929C465.042 85.2265 479.844 43.8234 472.234 36.4628Z" fill="#194460"/>
<path d="M410.814 58.9221L252.883 222.659L294.111 262.439L452.042 98.7021L410.814 58.9221Z" fill="#A7B2BA"/>
<mask id="mask1" mask-type="alpha" maskUnits="userSpaceOnUse" x="252" y="58" width="201" height="205">
<path d="M410.814 58.9221L252.883 222.659L294.111 262.439L452.042 98.7021L410.814 58.9221Z" fill="white"/>
</mask>
<g mask="url(#mask1)">
<path opacity="0.1857" d="M453 116.091C449.738 112.912 423.145 124.12 415.618 131.899C410.601 137.085 374.975 174.055 308.658 242.725L331.572 264.807C402.739 191.034 438.281 154.148 438.281 154.148C446.142 146.118 456.261 119.185 453 116.091Z" fill="#1C272B"/>
</g>
<mask id="mask2" mask-type="alpha" maskUnits="userSpaceOnUse" x="252" y="58" width="201" height="205">
<path d="M410.814 58.9221L252.883 222.659L294.111 262.439L452.042 98.7021L410.814 58.9221Z" fill="white"/>
</mask>
<g mask="url(#mask2)">
<path opacity="0.1857" d="M394.878 60.05C391.7 56.9552 365.358 68.3306 357.831 76.193C352.813 81.3789 317.188 118.349 250.871 187.019L273.2 208.516C344.283 134.743 379.909 97.8564 379.909 97.8564C387.77 89.7431 398.056 63.0611 394.878 60.05Z" fill="#1C272B"/>
</g>
<path d="M228.724 256.92L225.414 260.351L237.993 272.488L241.303 269.057L228.724 256.92Z" fill="#F27766"/>
<path d="M248.232 275.708L244.922 279.139L257.501 291.277L260.811 287.845L248.232 275.708Z" fill="#F27766"/>
<path d="M238.995 240.969L233.81 246.406L217.001 230.179C215.078 228.339 215.078 225.328 216.917 223.404L218.841 221.48L238.995 240.969Z" fill="#7D9098"/>
<path d="M246.773 240.132C243.763 243.311 238.829 243.394 235.651 240.3L214.576 220.058C211.399 217.047 211.315 212.112 214.409 208.934C217.42 205.755 222.354 205.672 225.532 208.766L246.606 229.091C249.617 232.103 249.7 237.121 246.773 240.132Z" fill="#194460"/>
<path d="M296.95 296.925L295.026 298.849C293.187 300.773 290.176 300.773 288.252 298.933L271.527 282.79L276.712 277.353L296.95 296.925Z" fill="#7D9098"/>
<path d="M304.728 296.089C301.717 299.267 296.783 299.351 293.605 296.256L272.531 275.847C269.353 272.836 269.269 267.901 272.364 264.723C275.374 261.544 280.308 261.461 283.486 264.556L304.728 285.048C307.571 288.059 307.655 292.994 304.728 296.089Z" fill="#194460"/>
<path d="M393.624 58.7956C390.446 55.7008 364.103 67.0762 356.577 74.9386C351.559 80.1245 315.933 117.094 249.616 185.765L271.945 207.261C343.029 133.572 378.654 96.6857 378.654 96.6857C386.432 88.4887 396.802 61.8904 393.624 58.7956Z" fill="#194460"/>
<mask id="mask3" mask-type="alpha" maskUnits="userSpaceOnUse" x="249" y="58" width="146" height="150">
<path d="M393.624 58.7956C390.446 55.7008 364.103 67.0762 356.577 74.9386C351.559 80.1245 315.933 117.094 249.616 185.765L271.945 207.261C343.029 133.572 378.654 96.6857 378.654 96.6857C386.432 88.4887 396.802 61.8904 393.624 58.7956Z" fill="white"/>
</mask>
<g mask="url(#mask3)">
<path d="M381.321 45.9632L233.319 199.407L245.898 211.544L393.9 58.1005L381.321 45.9632Z" fill="#254D66"/>
</g>
<mask id="mask4" mask-type="alpha" maskUnits="userSpaceOnUse" x="249" y="58" width="146" height="150">
<path d="M393.624 58.7956C390.446 55.7008 364.103 67.0762 356.577 74.9386C351.559 80.1245 315.933 117.094 249.616 185.765L271.945 207.261C343.029 133.572 378.654 96.6857 378.654 96.6857C386.432 88.4887 396.802 61.8904 393.624 58.7956Z" fill="white"/>
</mask>
<g mask="url(#mask4)">
<path d="M313.676 164.269L315.85 162.01L304.393 150.969L302.219 153.228L313.676 164.269Z" fill="#E9806E"/>
</g>
<mask id="mask5" mask-type="alpha" maskUnits="userSpaceOnUse" x="249" y="58" width="146" height="150">
<path d="M393.624 58.7956C390.446 55.7008 364.103 67.0762 356.577 74.9386C351.559 80.1245 315.933 117.094 249.616 185.765L271.945 207.261C343.029 133.572 378.654 96.6857 378.654 96.6857C386.432 88.4887 396.802 61.8904 393.624 58.7956Z" fill="white"/>
</mask>
<g mask="url(#mask5)">
<path d="M344.618 132.15L346.792 129.891L335.335 118.851L333.161 121.109L344.618 132.15Z" fill="#E9806E"/>
</g>
<mask id="mask6" mask-type="alpha" maskUnits="userSpaceOnUse" x="249" y="58" width="146" height="150">
<path d="M393.624 58.7956C390.446 55.7008 364.103 67.0762 356.577 74.9386C351.559 80.1245 315.933 117.094 249.616 185.765L271.945 207.261C343.029 133.572 378.654 96.6857 378.654 96.6857C386.432 88.4887 396.802 61.8904 393.624 58.7956Z" fill="white"/>
</mask>
<g mask="url(#mask6)">
<path d="M376.648 98.9437L378.822 96.6854L367.365 85.6445L365.191 87.9029L376.648 98.9437Z" fill="#E9806E"/>
</g>
<mask id="mask7" mask-type="alpha" maskUnits="userSpaceOnUse" x="249" y="58" width="146" height="150">
<path d="M393.624 58.7956C390.446 55.7008 364.103 67.0762 356.577 74.9386C351.559 80.1245 315.933 117.094 249.616 185.765L271.945 207.261C343.029 133.572 378.654 96.6857 378.654 96.6857C386.432 88.4887 396.802 61.8904 393.624 58.7956Z" fill="white"/>
</mask>
<g mask="url(#mask7)">
<path d="M365.274 87.8198L367.448 85.6451L354.988 73.6006C354.152 74.2697 353.399 75.0225 352.646 75.7753L365.274 87.8198Z" fill="#F69C79"/>
</g>
<mask id="mask8" mask-type="alpha" maskUnits="userSpaceOnUse" x="249" y="58" width="146" height="150">
<path d="M393.624 58.7956C390.446 55.7008 364.103 67.0762 356.577 74.9386C351.559 80.1245 315.933 117.094 249.616 185.765L271.945 207.261C343.029 133.572 378.654 96.6857 378.654 96.6857C386.432 88.4887 396.802 61.8904 393.624 58.7956Z" fill="white"/>
</mask>
<g mask="url(#mask8)">
<path d="M333.245 121.025L335.419 118.851L322.958 106.806C322.122 107.475 321.369 108.228 320.617 108.981L333.245 121.025Z" fill="#F69C79"/>
</g>
<mask id="mask9" mask-type="alpha" maskUnits="userSpaceOnUse" x="249" y="58" width="146" height="150">
<path d="M393.624 58.7956C390.446 55.7008 364.103 67.0762 356.577 74.9386C351.559 80.1245 315.933 117.094 249.616 185.765L271.945 207.261C343.029 133.572 378.654 96.6857 378.654 96.6857C386.432 88.4887 396.802 61.8904 393.624 58.7956Z" fill="white"/>
</mask>
<g mask="url(#mask9)">
<path d="M302.302 153.144L304.476 150.969L292.015 138.925C291.179 139.594 290.426 140.346 289.674 141.099L302.302 153.144Z" fill="#F69C79"/>
</g>
<g opacity="0.1857">
<path opacity="0.7" d="M460.275 126.295C463.286 129.138 453.502 154.148 446.477 161.424C441.794 166.276 408.51 200.82 346.709 264.89L325.885 244.816C392.286 175.978 425.486 141.518 425.486 141.518C432.762 133.99 457.348 123.451 460.275 126.295Z" fill="#1C272B"/>
</g>
<path d="M453.92 117.011C457.098 120.106 446.644 146.871 439.118 154.65C434.1 159.836 398.474 196.806 332.157 265.476L309.829 243.98C380.996 170.207 416.538 133.321 416.538 133.321C424.483 125.208 450.742 113.916 453.92 117.011Z" fill="#194460"/>
<mask id="mask10" mask-type="alpha" maskUnits="userSpaceOnUse" x="309" y="116" width="146" height="150">
<path d="M453.92 117.011C457.098 120.106 446.644 146.871 439.118 154.65C434.1 159.836 398.474 196.806 332.157 265.476L309.829 243.98C380.996 170.207 416.538 133.321 416.538 133.321C424.483 125.208 450.742 113.916 453.92 117.011Z" fill="white"/>
</mask>
<g mask="url(#mask10)">
<path d="M467.205 270.121L319.203 116.677L306.624 128.814L454.626 282.258L467.205 270.121Z" fill="#254D66"/>
</g>
<mask id="mask11" mask-type="alpha" maskUnits="userSpaceOnUse" x="309" y="116" width="146" height="150">
<path d="M453.92 117.011C457.098 120.106 446.644 146.871 439.118 154.65C434.1 159.836 398.474 196.806 332.157 265.476L309.829 243.98C380.996 170.207 416.538 133.321 416.538 133.321C424.483 125.208 450.742 113.916 453.92 117.011Z" fill="white"/>
</mask>
<g mask="url(#mask11)">
<path d="M351.475 200.653L353.65 198.395L365.107 209.435L362.932 211.694L351.475 200.653Z" fill="#E9806E"/>
</g>
<mask id="mask12" mask-type="alpha" maskUnits="userSpaceOnUse" x="309" y="116" width="146" height="150">
<path d="M453.92 117.011C457.098 120.106 446.644 146.871 439.118 154.65C434.1 159.836 398.474 196.806 332.157 265.476L309.829 243.98C380.996 170.207 416.538 133.321 416.538 133.321C424.483 125.208 450.742 113.916 453.92 117.011Z" fill="white"/>
</mask>
<g mask="url(#mask12)">
<path d="M382.417 168.618L384.592 166.36L396.049 177.401L393.875 179.659L382.417 168.618Z" fill="#E9806E"/>
</g>
<mask id="mask13" mask-type="alpha" maskUnits="userSpaceOnUse" x="309" y="116" width="146" height="150">
<path d="M453.92 117.011C457.098 120.106 446.644 146.871 439.118 154.65C434.1 159.836 398.474 196.806 332.157 265.476L309.829 243.98C380.996 170.207 416.538 133.321 416.538 133.321C424.483 125.208 450.742 113.916 453.92 117.011Z" fill="white"/>
</mask>
<g mask="url(#mask13)">
<path d="M414.447 135.412L416.621 133.154L428.078 144.195L425.904 146.453L414.447 135.412Z" fill="#E9806E"/>
</g>
<mask id="mask14" mask-type="alpha" maskUnits="userSpaceOnUse" x="309" y="116" width="146" height="150">
<path d="M453.92 117.011C457.098 120.106 446.644 146.871 439.118 154.65C434.1 159.836 398.474 196.806 332.157 265.476L309.829 243.98C380.996 170.207 416.538 133.321 416.538 133.321C424.483 125.208 450.742 113.916 453.92 117.011Z" fill="white"/>
</mask>
<g mask="url(#mask14)">
<path d="M425.904 146.369L428.078 144.194L440.539 156.239C439.954 157.075 439.117 157.912 438.448 158.665L425.904 146.369Z" fill="#F69C79"/>
</g>
<mask id="mask15" mask-type="alpha" maskUnits="userSpaceOnUse" x="309" y="116" width="146" height="150">
<path d="M453.92 117.011C457.098 120.106 446.644 146.871 439.118 154.65C434.1 159.836 398.474 196.806 332.157 265.476L309.829 243.98C380.996 170.207 416.538 133.321 416.538 133.321C424.483 125.208 450.742 113.916 453.92 117.011Z" fill="white"/>
</mask>
<g mask="url(#mask15)">
<path d="M393.875 179.575L396.049 177.4L408.51 189.445C407.925 190.281 407.088 191.118 406.419 191.871L393.875 179.575Z" fill="#F69C79"/>
</g>
<mask id="mask16" mask-type="alpha" maskUnits="userSpaceOnUse" x="309" y="116" width="146" height="150">
<path d="M453.92 117.011C457.098 120.106 446.644 146.871 439.118 154.65C434.1 159.836 398.474 196.806 332.157 265.476L309.829 243.98C380.996 170.207 416.538 133.321 416.538 133.321C424.483 125.208 450.742 113.916 453.92 117.011Z" fill="white"/>
</mask>
<g mask="url(#mask16)">
<path d="M363.016 211.611L365.19 209.436L377.651 221.48C377.065 222.317 376.229 223.153 375.56 223.906L363.016 211.611Z" fill="#F69C79"/>
</g>
<path d="M381.832 200.151L386.432 204.584L390.864 199.984L386.265 195.551L381.832 200.151Z" stroke="#0B324B" stroke-opacity="0.22"/>
<path d="M375.226 207.01L379.825 211.443L384.257 206.842L379.658 202.409L375.226 207.01Z" stroke="#0B324B" stroke-opacity="0.22"/>
<mask id="mask17" mask-type="alpha" maskUnits="userSpaceOnUse" x="211" y="130" width="144" height="116">
<path d="M317.188 158.414C288.169 180.579 258.23 178.321 242.842 176.982C227.538 175.728 217.001 188.107 217.001 188.107L211.565 193.794L243.26 245.737L352.897 132.234L354.235 130.895C346.29 136.499 317.188 158.414 317.188 158.414Z" fill="white"/>
</mask>
<g mask="url(#mask17)">
<path d="M317.239 158.448C288.22 180.614 258.281 178.355 242.893 177.017C227.589 175.763 217.052 188.142 217.052 188.142L211.616 193.829L243.311 245.771L352.864 132.185L354.202 130.846C346.341 136.534 317.239 158.448 317.239 158.448Z" fill="#A7B2BA"/>
<path d="M222.799 180.476L221.696 181.619L268.16 226.452L269.263 225.308L222.799 180.476Z" fill="#7D9098"/>
<path d="M273.667 220.679L272.58 221.85L226.752 177.603L227.923 176.516L273.667 220.679Z" fill="#7D9098"/>
<path d="M278.267 216.246L277.18 217.417L231.686 173.588L232.773 172.417L278.267 216.246Z" fill="#7D9098"/>
</g>
<path d="M340.018 270.746C341.858 286.052 329.899 297.093 329.899 297.093L324.463 302.781L271.109 272.67L380.661 159.083L355.74 195.635C334.666 225.412 338.178 255.439 340.018 270.746Z" fill="#A7B2BA"/>
<mask id="mask18" mask-type="alpha" maskUnits="userSpaceOnUse" x="271" y="159" width="110" height="144">
<path d="M340.018 270.746C341.858 286.052 329.899 297.093 329.899 297.093L324.463 302.781L271.109 272.67L380.661 159.083L355.74 195.635C334.666 225.412 338.178 255.439 340.018 270.746Z" fill="white"/>
</mask>
<g mask="url(#mask18)">
<path d="M293.806 248.904L292.703 250.048L339.168 294.88L340.271 293.736L293.806 248.904Z" fill="#7D9098"/>
</g>
<mask id="mask19" mask-type="alpha" maskUnits="userSpaceOnUse" x="271" y="159" width="110" height="144">
<path d="M340.018 270.746C341.858 286.052 329.899 297.093 329.899 297.093L324.463 302.781L271.109 272.67L380.661 159.083L355.74 195.635C334.666 225.412 338.178 255.439 340.018 270.746Z" fill="white"/>
</mask>
<g mask="url(#mask19)">
<path d="M344.617 289.147L343.53 290.318L297.785 246.155L298.873 244.984L344.617 289.147Z" fill="#7D9098"/>
</g>
<mask id="mask20" mask-type="alpha" maskUnits="userSpaceOnUse" x="271" y="159" width="110" height="144">
<path d="M340.018 270.746C341.858 286.052 329.899 297.093 329.899 297.093L324.463 302.781L271.109 272.67L380.661 159.083L355.74 195.635C334.666 225.412 338.178 255.439 340.018 270.746Z" fill="white"/>
</mask>
<g mask="url(#mask20)">
<path d="M349.217 284.714L348.129 285.885L302.719 242.056L303.807 240.885L349.217 284.714Z" fill="#7D9098"/>
</g>
<path d="M399.429 97.1389C399.011 97.3898 398.342 97.7244 397.924 97.9753C366.396 114.955 342.395 141.804 342.395 141.804L240.703 247.194L255.422 261.413L406.956 104.416L399.429 97.1389Z" fill="#E2E5EA"/>
<path d="M414.482 111.359C414.733 110.773 414.984 110.271 415.235 109.686L407.29 102.074L255.673 259.322L271.395 274.462L373.17 168.988C373.003 168.905 399.178 143.979 414.482 111.359Z" fill="#E2E5EA"/>
<path d="M251.459 269.937L247.047 274.512L261.913 288.856L266.326 284.281L251.459 269.937Z" fill="#0B324B"/>
<path d="M232.012 251.206L227.599 255.781L242.465 270.125L246.878 265.55L232.012 251.206Z" fill="#0B324B"/>
<path d="M384.122 127.844L374.923 118.978C374.254 118.392 374.254 117.388 374.923 116.719C375.007 116.636 375.007 116.636 375.09 116.552C378.603 113.708 381.112 111.952 382.701 111.282C385.795 109.777 390.478 109.275 396.583 114.963C402.437 120.818 402.186 125.502 400.764 128.68C400.095 130.269 398.423 132.862 395.747 136.459C395.747 136.542 395.663 136.542 395.579 136.626C394.994 137.295 393.99 137.295 393.321 136.626L384.122 127.844Z" fill="#A2B9C8"/>
<path d="M372.35 140.119L374.106 138.279L359.973 124.729C359.304 125.23 358.719 125.816 358.05 126.318L372.35 140.119Z" fill="#C0CED7"/>
<path d="M386.65 153.92C387.152 153.167 387.654 152.666 388.239 151.913L374.106 138.279L372.35 140.119L386.65 153.92Z" fill="#C0CED7"/>
<path d="M335.703 148.638L333.613 150.805L348.359 165.033L350.449 162.866L335.703 148.638Z" fill="#C0CED7"/>
<path d="M311.914 173.262L309.824 175.429L324.57 189.657L326.66 187.489L311.914 173.262Z" fill="#C0CED7"/>
<path d="M326.639 187.492L324.549 189.659L339.295 203.887L341.385 201.72L326.639 187.492Z" fill="#C0CED7"/>
<path d="M288.178 197.918L286.088 200.085L300.834 214.313L302.924 212.146L288.178 197.918Z" fill="#C0CED7"/>
<path d="M302.903 212.148L300.813 214.315L315.559 228.543L317.649 226.375L302.903 212.148Z" fill="#C0CED7"/>
<path d="M264.332 222.567L262.242 224.734L276.988 238.962L279.078 236.795L264.332 222.567Z" fill="#C0CED7"/>
<path d="M279.057 236.797L276.967 238.964L291.713 253.192L293.803 251.025L279.057 236.797Z" fill="#C0CED7"/>
<path d="M372.808 137.29L253.953 260.515L256.24 262.721L375.095 139.497L372.808 137.29Z" fill="#C0CED7"/>
<path d="M266.426 288.812L227.539 251.257L246.355 231.768C255.136 222.651 274.621 241.387 274.621 241.387C274.621 241.387 294.107 260.123 285.242 269.323L266.426 288.812Z" fill="#335165"/>
<path d="M229.758 248.978L227.552 251.265L266.493 288.838L268.699 286.551L229.758 248.978Z" fill="#4E697A"/>
<path d="M387.603 146.202C388.48 146.202 389.192 145.49 389.192 144.612C389.192 143.735 388.48 143.023 387.603 143.023C386.725 143.023 386.014 143.735 386.014 144.612C386.014 145.49 386.725 146.202 387.603 146.202Z" fill="#C0CED7"/>
<path d="M382.417 141.184C383.295 141.184 384.006 140.472 384.006 139.594C384.006 138.717 383.295 138.005 382.417 138.005C381.54 138.005 380.828 138.717 380.828 139.594C380.828 140.472 381.54 141.184 382.417 141.184Z" fill="#C0CED7"/>
<path d="M374.055 133.154C374.932 133.154 375.643 132.442 375.643 131.565C375.643 130.687 374.932 129.975 374.055 129.975C373.177 129.975 372.466 130.687 372.466 131.565C372.466 132.442 373.177 133.154 374.055 133.154Z" fill="#C0CED7"/>
<path d="M368.87 128.052C369.748 128.052 370.459 127.34 370.459 126.463C370.459 125.585 369.748 124.873 368.87 124.873C367.993 124.873 367.281 125.585 367.281 126.463C367.281 127.34 367.993 128.052 368.87 128.052Z" fill="#C0CED7"/>
<path d="M366.946 170.04L358.082 179.241C357.496 179.91 356.493 179.91 355.824 179.241C355.155 178.655 355.155 177.651 355.824 176.982L364.688 167.782C365.274 167.113 366.277 167.113 366.946 167.782C367.532 168.367 367.532 169.371 366.946 170.04Z" fill="#0B324B" fill-opacity="0.3562"/>
<path d="M354.821 182.586C354.235 183.255 353.232 183.255 352.563 182.586C351.894 182 351.894 180.997 352.563 180.328C353.148 179.658 354.151 179.658 354.821 180.328C355.406 180.997 355.406 182 354.821 182.586Z" fill="#0B324B" fill-opacity="0.3562"/>
<path opacity="0.2463" d="M237.323 250.253L250.369 236.787L260.739 246.74L247.693 260.207L237.323 250.253ZM250.286 237.874L238.41 250.17L247.609 259.036L259.485 246.74L250.286 237.874Z" fill="#7D9098"/>
<path opacity="0.2463" d="M240.765 247.232L239.662 248.376L249.352 257.726L250.455 256.582L240.765 247.232Z" fill="#7D9098"/>
<path opacity="0.2463" d="M243.376 244.556L242.272 245.7L251.963 255.05L253.066 253.906L243.376 244.556Z" fill="#7D9098"/>
<path opacity="0.2463" d="M254.423 249.133C255.096 248.435 255.076 247.323 254.378 246.65C253.68 245.976 252.568 245.996 251.895 246.694C251.221 247.393 251.241 248.504 251.939 249.178C252.638 249.852 253.749 249.832 254.423 249.133Z" fill="#7D9098"/>
<path d="M227.56 358.196C254.19 345.049 265.122 312.8 251.978 286.166C238.834 259.531 206.59 248.597 179.96 261.743C153.33 274.89 142.397 307.139 155.542 333.774C168.686 360.408 200.93 371.343 227.56 358.196Z" fill="#EBF3F9" fill-opacity="0.0838428"/>
<path d="M221.859 346.645C242.07 336.668 250.351 312.159 240.354 291.903C230.358 271.648 205.871 263.316 185.66 273.293C165.449 283.271 157.169 307.779 167.165 328.035C177.161 348.291 201.649 356.623 221.859 346.645Z" fill="#EBF3F9" fill-opacity="0.0838428"/>
<path d="M379.24 116.927C377.985 118.182 378.487 118.349 386.181 125.793C393.875 133.237 393.958 133.823 395.296 132.401C396.551 131.146 394.962 125.626 390.53 121.36C386.014 117.011 380.411 115.672 379.24 116.927Z" fill="#E7EBEF" fill-opacity="0.319"/>
<path d="M395.798 124.789C396.675 124.789 397.387 124.078 397.387 123.2C397.387 122.323 396.675 121.611 395.798 121.611C394.92 121.611 394.209 122.323 394.209 123.2C394.209 124.078 394.92 124.789 395.798 124.789Z" fill="#E7EBEF" fill-opacity="0.319"/>
<path d="M396.031 120.097C396.705 119.399 396.55 118.157 395.686 117.323C394.822 116.489 393.575 116.379 392.902 117.077C392.228 117.775 392.383 119.017 393.247 119.851C394.111 120.685 395.358 120.795 396.031 120.097Z" fill="#E7EBEF" fill-opacity="0.319"/>
<path d="M413.861 112.828L398.307 97.8561C409.596 91.081 416.621 88.99 419.297 91.5829C421.973 94.1758 420.217 101.202 413.861 112.828Z" fill="#194460"/>
<path d="M433.18 113.665L435.354 111.406L428.497 104.799L426.322 107.057L433.18 113.665ZM432.009 114.836L425.152 108.228L422.977 110.486L429.835 117.094L432.009 114.836ZM436.441 110.236L438.616 107.977L431.758 101.369L429.584 103.628L436.441 110.236ZM439.786 106.806L441.961 104.548L435.103 97.94L432.929 100.198L439.786 106.806ZM443.048 103.377L445.222 101.118L438.365 94.5107L436.19 96.769L443.048 103.377ZM447.564 101.035L429.918 119.353L420.719 110.486L438.365 92.1687L447.564 101.035Z" fill="#4E697A"/>
<g opacity="0.4">
<mask id="mask21" mask-type="alpha" maskUnits="userSpaceOnUse" x="86" y="275" width="10" height="10">
<path fill-rule="evenodd" clip-rule="evenodd" d="M91.9412 275.723L95.4277 280.654L90.4376 284.208L86.9511 279.277L91.9412 275.723Z" fill="white"/>
</mask>
<g mask="url(#mask21)">
<path fill-rule="evenodd" clip-rule="evenodd" d="M92.9941 282.395C91.5932 283.373 89.7293 283.045 88.7557 281.707C87.7822 280.369 88.1066 278.442 89.5075 277.465C90.9084 276.487 92.7723 276.816 93.7458 278.153C94.7194 279.491 94.3316 281.422 92.9941 282.395Z" fill="#EE6B41"/>
<path fill-rule="evenodd" clip-rule="evenodd" d="M92.9939 282.395C92.4478 282.811 91.1894 281.999 90.2119 280.599C89.2383 279.261 88.894 277.821 89.4401 277.405C89.9862 276.99 91.2447 277.801 92.2222 279.202C93.1997 280.602 93.544 282.043 92.9939 282.395Z" fill="#E3613E"/>
</g>
<mask id="mask22" mask-type="alpha" maskUnits="userSpaceOnUse" x="30" y="240" width="90" height="103">
<path fill-rule="evenodd" clip-rule="evenodd" d="M31.5088 269.904L80.9974 339.591L118.429 313.032L69.0038 243.341L31.5088 269.904Z" fill="white"/>
</mask>
<g mask="url(#mask22)">
<path fill-rule="evenodd" clip-rule="evenodd" d="M63.1011 298.376L64.5653 300.445L84.4031 286.301L82.9388 284.232L63.1011 298.376Z" fill="#52606F"/>
<path fill-rule="evenodd" clip-rule="evenodd" d="M81.0553 285.621L82.5196 287.691L84.4072 286.365L82.9429 284.295L81.0553 285.621Z" fill="#5D6E7F"/>
<path fill-rule="evenodd" clip-rule="evenodd" d="M57.2869 277.572L82.3062 312.748L84.1938 311.422L59.2378 276.242L57.2869 277.572Z" fill="#52606F"/>
<path fill-rule="evenodd" clip-rule="evenodd" d="M74.4267 301.609L64.7387 287.976L67.1131 287.319L76.8011 300.952L74.4267 301.609Z" fill="#5D6E7F"/>
<path fill-rule="evenodd" clip-rule="evenodd" d="M62.5069 284.81L61.9528 284.082L63.8404 282.756L64.8179 284.157L62.5069 284.81Z" fill="#5D6E7F"/>
<path fill-rule="evenodd" clip-rule="evenodd" d="M76.6588 304.775L77.6363 306.176L79.5239 304.85L78.9698 304.122L76.6588 304.775Z" fill="#5D6E7F"/>
<path fill-rule="evenodd" clip-rule="evenodd" d="M56.2545 304.779C55.4907 303.746 55.7835 302.329 56.8163 301.566L60.7736 298.776L63.4251 302.551L59.4679 305.341C58.4311 306.041 57.0183 305.812 56.2545 304.779Z" fill="#E3613E"/>
<path fill-rule="evenodd" clip-rule="evenodd" d="M57.5489 305.143C57.161 305.04 56.8247 304.743 56.6149 304.439C56.0529 303.584 56.2943 302.361 57.1491 301.799L57.9999 301.174C58.2413 300.968 58.6291 301.071 58.8349 301.312L59.3929 302.104C59.4641 302.226 59.476 302.416 59.3533 302.488C58.6212 302.978 58.1622 303.77 57.9644 304.672L57.9209 304.993C57.8655 305.123 57.7428 305.194 57.5489 305.143Z" fill="#EE6B41"/>
<path fill-rule="evenodd" clip-rule="evenodd" d="M57.0347 304.031C56.8922 303.786 56.8131 303.537 56.8566 303.216C56.8408 302.963 56.9516 302.702 57.1257 302.437C57.185 302.369 57.3077 302.298 57.375 302.357C57.3829 302.484 57.4541 302.607 57.3948 302.674C57.3434 302.868 57.2919 303.062 57.2998 303.189C57.3117 303.378 57.3829 303.501 57.5215 303.683C57.656 303.802 57.6046 303.996 57.4859 304.13C57.3671 304.265 57.1732 304.213 57.0347 304.031C57.0387 304.095 57.0387 304.095 57.0347 304.031Z" fill="white" fill-opacity="0.3"/>
<path fill-rule="evenodd" clip-rule="evenodd" d="M61.7634 304.434L58.348 299.626C57.513 298.471 57.7979 296.927 58.9534 296.092L76.0606 284.026C76.4247 283.749 76.9392 283.844 77.2162 284.208L82.5826 291.754C82.8596 292.119 82.7646 292.633 82.4005 292.91L65.2973 305.04C64.0784 305.879 62.5351 305.594 61.7634 304.434Z" fill="#67798D"/>
<path fill-rule="evenodd" clip-rule="evenodd" d="M63.2835 304.339L58.9619 298.253C58.4039 297.462 58.5938 296.433 59.3852 295.875L60.6634 294.969L66.94 303.857L65.6618 304.763C64.8704 305.321 63.8415 305.131 63.2835 304.339Z" fill="#5D6E7F"/>
<path fill-rule="evenodd" clip-rule="evenodd" d="M64.807 303.291L60.4181 297.145C59.2309 295.439 59.5909 293.065 61.2965 291.878L73.655 283.159C74.0191 282.882 74.5335 282.977 74.8105 283.341L82.5514 294.299C82.8284 294.663 82.7335 295.177 82.3694 295.455L70.0782 304.232C68.3726 305.42 65.9942 304.996 64.807 303.291Z" fill="#67798D"/>
<path fill-rule="evenodd" clip-rule="evenodd" d="M64.9489 302.519L61.2526 297.284C60.0654 295.578 60.4254 293.204 62.131 292.017L73.9988 283.583C74.3629 283.306 74.8773 283.401 75.1544 283.765L82.266 293.809C82.543 294.173 82.4481 294.687 82.084 294.964L70.2755 303.33C68.5106 304.585 66.1995 304.221 64.9489 302.519Z" fill="#7A91A6"/>
<path fill-rule="evenodd" clip-rule="evenodd" d="M64.2282 299.132C62.9737 297.367 63.1438 295.004 64.5763 293.516L69.5387 288.502C71.8695 286.131 75.8387 286.582 77.861 289.444C79.8833 292.305 78.9811 296.175 76.0171 297.568L69.6617 300.635C67.7464 301.518 65.4827 300.896 64.2282 299.132Z" fill="#7A91A6"/>
<path fill-rule="evenodd" clip-rule="evenodd" d="M64.6796 294.145L72.4082 288.641L76.52 294.422C76.6585 294.604 76.611 294.861 76.429 295L69.4286 299.951C69.2466 300.089 68.9893 300.042 68.8508 299.86L64.6796 294.145Z" fill="#1D2429"/>
<path fill-rule="evenodd" clip-rule="evenodd" d="M64.676 294.082L72.4085 288.64L77.5769 292.004C77.8421 292.178 77.8619 292.495 77.6205 292.7L70.6201 297.651C70.4974 297.722 70.3074 297.734 70.1768 297.679L64.676 294.082Z" fill="#90A7BB"/>
<path fill-rule="evenodd" clip-rule="evenodd" d="M97.3949 287.714C97.8778 288.319 97.7432 289.218 97.0032 289.582C91.9577 292.249 85.7684 290.856 82.4876 286.167C79.1435 281.481 79.8319 275.209 84.0385 271.323C84.64 270.777 85.5383 270.911 85.8984 271.588C89.4246 277.152 93.2594 282.569 97.3949 287.714Z" fill="#5F5377"/>
<path fill-rule="evenodd" clip-rule="evenodd" d="M84.5532 284.64C81.692 280.56 81.5019 275.486 83.6783 271.663C79.915 275.522 79.3413 281.596 82.5469 286.1C85.7564 290.667 91.6925 292.075 96.5718 289.8C92.2346 290.579 87.4778 288.716 84.5532 284.64Z" fill="#564970"/>
<path fill-rule="evenodd" clip-rule="evenodd" d="M92.9112 278.014C92.8558 278.145 92.535 278.102 92.2064 277.931C91.8777 277.761 91.6718 277.519 91.7272 277.389C91.7827 277.258 92.1034 277.302 92.4321 277.472C92.7607 277.642 92.9667 277.884 92.9112 278.014Z" fill="white" fill-opacity="0.3"/>
<path fill-rule="evenodd" clip-rule="evenodd" d="M73.1922 294.058C72.9507 294.264 72.5665 294.224 72.3606 293.983C72.1547 293.741 72.1349 293.424 72.3804 293.282C72.622 293.076 73.0061 293.115 73.212 293.357C73.4179 293.599 73.4377 293.915 73.1922 294.058Z" fill="#67798D"/>
<path fill-rule="evenodd" clip-rule="evenodd" d="M55.3563 285.321L42.0432 266.575C40.9945 265.052 41.311 262.998 42.8306 261.886L49.1583 257.358C50.6818 256.31 52.7357 256.626 53.8477 258.146L67.228 276.951C68.2768 278.474 67.9602 280.528 66.4407 281.64L60.113 286.167C58.5261 287.22 56.4683 286.84 55.3563 285.321Z" fill="#5F5377"/>
<path fill-rule="evenodd" clip-rule="evenodd" d="M55.9455 277.466L58.5258 281.118L62.6651 278.19L60.0848 274.537L55.9455 277.466ZM53.013 273.263L55.5933 276.916L59.7326 273.987L57.1523 270.334L53.013 273.263ZM50.0172 269.064L52.5975 272.717L56.7368 269.788L54.1565 266.136L50.0172 269.064ZM47.0886 264.925L49.6689 268.578L53.8082 265.649L51.2279 261.996L47.0886 264.925ZM65.5264 282.27L66.0131 281.921L63.5041 278.391L66.6105 276.227L66.2622 275.74L63.1558 277.905L60.5755 274.252L63.682 272.087L63.3337 271.601L60.2272 273.765L57.647 270.113L60.7534 267.948L60.4051 267.461L57.2987 269.626L54.7184 265.974L57.8249 263.809L57.4766 263.322L54.3701 265.487L51.7899 261.834L54.8963 259.669L54.548 259.183L51.4416 261.347L48.9325 257.818L48.4458 258.166L50.9549 261.696L46.8156 264.624L44.3065 261.094L43.8198 261.443L46.3288 264.973L42.7396 267.549L43.0878 268.036L46.6771 265.459L49.2574 269.112L45.6681 271.688L45.9412 271.989L49.5304 269.413L52.1107 273.065L48.5215 275.641L48.8698 276.128L52.459 273.552L55.0393 277.204L51.45 279.781L51.7983 280.268L55.4588 277.814L58.0391 281.466L54.4498 284.043L54.7981 284.529L58.3873 281.953L60.8964 285.483L61.3831 285.135L58.8741 281.605L63.0134 278.676L65.5264 282.27Z" fill="#564970"/>
<g opacity="0.2">
<path opacity="0.2" fill-rule="evenodd" clip-rule="evenodd" d="M45.1773 270.956L42.039 266.512C40.9903 264.989 41.3068 262.935 42.8264 261.823L47.0844 258.76L45.1773 270.956Z" fill="#564970"/>
</g>
<g opacity="0.2">
<path opacity="0.2" fill-rule="evenodd" clip-rule="evenodd" d="M54.4501 284.043L51.8737 280.453L56.0798 261.312L58.6562 264.901L54.4501 284.043Z" fill="#564970"/>
</g>
<g opacity="0.2">
<path opacity="0.2" fill-rule="evenodd" clip-rule="evenodd" d="M65.8348 275.004L67.2278 276.951C68.2766 278.475 67.9601 280.528 66.4405 281.64L64.9209 282.752L65.8348 275.004Z" fill="#564970"/>
</g>
<path fill-rule="evenodd" clip-rule="evenodd" d="M87.6296 330.786L74.3126 311.977C73.2639 310.453 73.5804 308.399 75.1 307.287L81.4276 302.76C82.9512 301.711 85.005 302.028 86.1171 303.547L99.438 322.419C100.487 323.943 100.17 325.997 98.6507 327.109L92.323 331.636C90.7955 332.622 88.6783 332.309 87.6296 330.786Z" fill="#5F5377"/>
<path fill-rule="evenodd" clip-rule="evenodd" d="M88.2182 322.93L90.7985 326.583L94.9378 323.654L92.3575 320.001L88.2182 322.93ZM85.2224 318.731L87.8027 322.384L91.942 319.455L89.3617 315.803L85.2224 318.731ZM82.2899 314.529L84.8702 318.181L89.0095 315.253L86.4292 311.6L82.2899 314.529ZM79.2941 310.33L81.8743 313.983L86.0136 311.054L83.4333 307.401L79.2941 310.33ZM97.7951 327.671L98.2819 327.322L95.7728 323.792L98.8793 321.628L98.531 321.141L95.4245 323.306L92.8443 319.653L95.9507 317.488L95.6024 317.002L92.496 319.166L89.9157 315.514L93.0222 313.349L92.6739 312.862L89.5674 315.027L86.9872 311.375L90.0936 309.21L89.7453 308.723L86.6389 310.888L84.0586 307.235L87.165 305.071L86.8168 304.584L83.7103 306.749L81.2013 303.219L80.7145 303.567L83.0851 306.915L78.9458 309.843L76.4367 306.313L75.95 306.662L78.4591 310.192L74.8698 312.768L75.2181 313.255L78.8073 310.678L81.3876 314.331L77.7984 316.907L78.1466 317.394L81.7359 314.818L84.3162 318.47L80.7269 321.046L81.0752 321.533L84.6644 318.957L87.2447 322.609L83.6555 325.186L84.0037 325.673L87.593 323.096L90.1733 326.749L86.584 329.325L87.0708 329.994L90.66 327.418L93.1691 330.947L93.6558 330.599L91.1468 327.069L95.2861 324.141L97.7951 327.671Z" fill="#564970"/>
<g opacity="0.2">
<path opacity="0.2" fill-rule="evenodd" clip-rule="evenodd" d="M84.4915 326.342L87.6298 330.786C88.6785 332.31 90.7957 332.622 92.3192 331.573L96.5772 328.51L84.4915 326.342Z" fill="#564970"/>
</g>
<g opacity="0.2">
<path opacity="0.2" fill-rule="evenodd" clip-rule="evenodd" d="M75.2191 313.255L77.7955 316.844L97.2063 319.254L94.63 315.665L75.2191 313.255Z" fill="#564970"/>
</g>
<path fill-rule="evenodd" clip-rule="evenodd" d="M87.5139 305.558L86.1209 303.611C85.0721 302.087 82.955 301.775 81.4314 302.824L79.9118 303.936L87.5139 305.558Z" fill="#564970" fill-opacity="0.2"/>
<path fill-rule="evenodd" clip-rule="evenodd" d="M92.8833 283.673L88.2174 277.164C88.0749 276.918 88.1184 276.598 88.3638 276.455C88.6091 276.313 88.9297 276.356 89.0722 276.602L93.738 283.111C93.8805 283.357 93.837 283.677 93.5916 283.82C93.3463 283.962 93.0258 283.919 92.8833 283.673Z" fill="#EE6B41" fill-opacity="0.05"/>
</g>
</g>
<g opacity="0.5">
<mask id="mask23" mask-type="alpha" maskUnits="userSpaceOnUse" x="517" y="109" width="11" height="10">
<path fill-rule="evenodd" clip-rule="evenodd" d="M521.5 118.764L517.855 112.901L523.833 109.209L527.478 115.072L521.5 118.764Z" fill="white"/>
</mask>
<g mask="url(#mask23)">
<path fill-rule="evenodd" clip-rule="evenodd" d="M520.772 111.091C522.448 110.077 524.562 110.584 525.583 112.177C526.603 113.769 526.093 115.941 524.417 116.954C522.74 117.968 520.626 117.461 519.605 115.869C518.585 114.276 519.168 112.104 520.772 111.091Z" fill="#EE6B41"/>
<path fill-rule="evenodd" clip-rule="evenodd" d="M520.772 111.091C521.428 110.656 522.813 111.67 523.834 113.335C524.854 114.927 525.146 116.592 524.49 117.027C523.834 117.461 522.449 116.448 521.428 114.783C520.407 113.118 520.116 111.453 520.772 111.091Z" fill="#E3613E"/>
</g>
<mask id="mask24" mask-type="alpha" maskUnits="userSpaceOnUse" x="493" y="46" width="98" height="112">
<path fill-rule="evenodd" clip-rule="evenodd" d="M590.391 129.695L538.632 46.8071L493.799 74.3882L545.485 157.276L590.391 129.695Z" fill="white"/>
</mask>
<g mask="url(#mask24)">
<path fill-rule="evenodd" clip-rule="evenodd" d="M556.201 95.0199L554.67 92.5586L530.905 107.254L532.436 109.715L556.201 95.0199Z" fill="#52606F"/>
<path fill-rule="evenodd" clip-rule="evenodd" d="M534.696 108.267L533.165 105.806L530.905 107.182L532.436 109.643L534.696 108.267Z" fill="#5D6E7F"/>
<path fill-rule="evenodd" clip-rule="evenodd" d="M561.377 119.126L535.206 77.2839L532.946 78.6594L559.044 120.501L561.377 119.126Z" fill="#52606F"/>
<path fill-rule="evenodd" clip-rule="evenodd" d="M543.443 90.5317L553.576 106.747L550.806 107.327L540.673 91.1109L543.443 90.5317Z" fill="#5D6E7F"/>
<path fill-rule="evenodd" clip-rule="evenodd" d="M555.909 110.512L556.492 111.38L554.232 112.756L553.212 111.091L555.909 110.512Z" fill="#5D6E7F"/>
<path fill-rule="evenodd" clip-rule="evenodd" d="M541.111 86.767L540.09 85.1021L537.83 86.4775L538.414 87.3462L541.111 86.767Z" fill="#5D6E7F"/>
<path fill-rule="evenodd" clip-rule="evenodd" d="M564.511 88.215C565.313 89.4456 564.876 91.0382 563.637 91.8345L558.898 94.7302L556.128 90.2419L560.866 87.3463C562.106 86.6223 563.709 86.9843 564.511 88.215Z" fill="#E3613E"/>
<path fill-rule="evenodd" clip-rule="evenodd" d="M563.053 87.7081C563.491 87.8529 563.855 88.2148 564.074 88.5768C564.657 89.5903 564.293 90.9657 563.272 91.5448L562.251 92.1963C561.96 92.4135 561.522 92.2687 561.304 91.9792L560.72 91.0381C560.648 90.8933 560.648 90.6761 560.793 90.6037C561.668 90.097 562.251 89.2283 562.543 88.2148L562.616 87.8529C562.689 87.7081 562.835 87.6357 563.053 87.7081Z" fill="#EE6B41"/>
<path fill-rule="evenodd" clip-rule="evenodd" d="M563.564 89.0116C563.71 89.3012 563.782 89.5907 563.71 89.9527C563.71 90.2423 563.564 90.5318 563.345 90.8214C563.272 90.8938 563.126 90.9662 563.053 90.8938C563.053 90.749 562.981 90.6042 563.053 90.5318C563.126 90.3147 563.199 90.0975 563.199 89.9527C563.199 89.7355 563.126 89.5907 562.981 89.3736C562.835 89.2288 562.908 89.0116 563.053 88.8668C563.199 88.722 563.418 88.7944 563.564 89.0116C563.564 88.9392 563.564 88.9392 563.564 89.0116Z" fill="white" fill-opacity="0.3"/>
<path fill-rule="evenodd" clip-rule="evenodd" d="M558.169 88.2153L561.741 93.9342C562.616 95.3096 562.179 97.047 560.794 97.9157L540.309 110.439C539.871 110.729 539.288 110.584 538.997 110.15L533.383 101.173C533.092 100.739 533.238 100.16 533.675 99.8703L554.16 87.2742C555.618 86.4055 557.367 86.8399 558.169 88.2153Z" fill="#67798D"/>
<path fill-rule="evenodd" clip-rule="evenodd" d="M556.419 88.2151L560.939 95.4542C561.522 96.3953 561.231 97.5535 560.283 98.1327L558.752 99.0737L552.191 88.5046L553.722 87.5635C554.67 86.9844 555.836 87.274 556.419 88.2151Z" fill="#5D6E7F"/>
<path fill-rule="evenodd" clip-rule="evenodd" d="M554.597 89.301L559.19 96.6125C560.429 98.6395 559.846 101.318 557.804 102.549L543.006 111.598C542.569 111.887 541.985 111.742 541.694 111.308L533.602 98.2775C533.31 97.8432 533.456 97.2641 533.893 96.9745L548.619 87.8532C550.66 86.6225 553.358 87.2741 554.597 89.301Z" fill="#67798D"/>
<path fill-rule="evenodd" clip-rule="evenodd" d="M554.378 90.1695L558.242 96.3951C559.481 98.4221 558.898 101.101 556.857 102.331L542.641 111.091C542.204 111.38 541.621 111.235 541.329 110.801L533.893 98.8564C533.602 98.4221 533.748 97.8429 534.185 97.5534L548.327 88.8664C550.442 87.5634 553.066 88.1425 554.378 90.1695Z" fill="#7A91A6"/>
<path fill-rule="evenodd" clip-rule="evenodd" d="M554.961 94.079C556.274 96.1783 555.909 98.8568 554.159 100.449L548.109 105.806C545.266 108.34 540.746 107.544 538.632 104.141C536.518 100.739 537.83 96.3955 541.329 95.0201L548.838 91.9797C551.098 91.111 553.649 91.9797 554.961 94.079Z" fill="#7A91A6"/>
<path fill-rule="evenodd" clip-rule="evenodd" d="M554.087 99.7253L544.828 105.444L540.527 98.5671C540.381 98.3499 540.454 98.0603 540.673 97.9155L549.056 92.7758C549.275 92.631 549.567 92.7034 549.713 92.9205L554.087 99.7253Z" fill="#1D2429"/>
<path fill-rule="evenodd" clip-rule="evenodd" d="M554.086 99.7974L544.828 105.444L539.142 101.245C538.85 101.028 538.85 100.666 539.142 100.449L547.525 95.3092C547.671 95.2368 547.89 95.2368 548.036 95.3092L554.086 99.7974Z" fill="#90A7BB"/>
<path fill-rule="evenodd" clip-rule="evenodd" d="M516.107 104.721C515.597 103.997 515.815 102.983 516.69 102.621C522.668 99.9427 529.666 101.97 533.092 107.544C536.592 113.118 535.352 120.212 530.249 124.339C529.52 124.918 528.5 124.701 528.135 123.904C524.49 117.317 520.481 110.874 516.107 104.721Z" fill="#5F5377"/>
<path fill-rule="evenodd" clip-rule="evenodd" d="M530.613 109.136C533.602 113.986 533.456 119.778 530.686 123.976C535.279 119.85 536.372 112.973 533.019 107.616C529.665 102.187 522.959 100.16 517.2 102.404C522.23 101.825 527.551 104.286 530.613 109.136Z" fill="#564970"/>
<path fill-rule="evenodd" clip-rule="evenodd" d="M520.553 116.086C520.626 115.941 520.991 116.013 521.355 116.23C521.72 116.448 521.939 116.738 521.866 116.882C521.793 117.027 521.428 116.955 521.064 116.738C520.699 116.52 520.48 116.23 520.553 116.086Z" fill="white" fill-opacity="0.3"/>
<path fill-rule="evenodd" clip-rule="evenodd" d="M544.318 99.2184C544.61 99.0011 545.048 99.0735 545.267 99.3633C545.485 99.653 545.485 100.015 545.194 100.16C544.902 100.377 544.464 100.305 544.245 100.015C544.027 99.7255 544.027 99.3633 544.318 99.2184Z" fill="#67798D"/>
<path fill-rule="evenodd" clip-rule="evenodd" d="M564.147 110.439L578.071 132.736C579.164 134.545 578.654 136.862 576.832 138.02L569.25 142.726C567.427 143.812 565.095 143.305 563.928 141.495L549.932 119.126C548.838 117.316 549.348 115 551.171 113.842L558.752 109.136C560.648 108.05 562.981 108.629 564.147 110.439Z" fill="#5F5377"/>
<path fill-rule="evenodd" clip-rule="evenodd" d="M562.908 119.344L560.21 115L555.253 118.041L557.95 122.384L562.908 119.344ZM565.969 124.339L563.272 119.995L558.315 123.036L561.012 127.379L565.969 124.339ZM569.104 129.334L566.407 124.99L561.45 128.031L564.147 132.374L569.104 129.334ZM572.166 134.256L569.469 129.913L564.511 132.953L567.209 137.297L572.166 134.256ZM552.264 113.19L551.681 113.552L554.306 117.751L550.588 119.995L550.952 120.574L554.67 118.33L557.367 122.674L553.649 124.918L554.014 125.497L557.732 123.253L560.429 127.596L556.711 129.84L557.076 130.419L560.794 128.175L563.491 132.519L559.773 134.763L560.137 135.342L563.855 133.098L566.553 137.441L562.835 139.686L563.199 140.265L566.917 138.021L569.541 142.219L570.125 141.857L567.5 137.659L572.457 134.618L575.082 138.817L575.665 138.455L573.041 134.256L577.342 131.578L576.977 130.999L572.676 133.677L569.979 129.334L574.28 126.655L573.988 126.293L569.687 128.972L566.99 124.628L571.291 121.95L570.927 121.371L566.625 124.049L563.928 119.706L568.229 117.027L567.865 116.448L563.491 118.982L560.794 114.638L565.095 111.96L564.73 111.381L560.429 114.059L557.805 109.86L557.221 110.222L559.846 114.421L554.889 117.461L552.264 113.19Z" fill="#564970"/>
<g opacity="0.2">
<path opacity="0.2" fill-rule="evenodd" clip-rule="evenodd" d="M574.79 127.524L578.071 132.808C579.164 134.618 578.654 136.935 576.831 138.093L571.728 141.278L574.79 127.524Z" fill="#564970"/>
</g>
<g opacity="0.2">
<path opacity="0.2" fill-rule="evenodd" clip-rule="evenodd" d="M565.094 111.959L567.792 116.231L561.595 137.731L558.898 133.46L565.094 111.959Z" fill="#564970"/>
</g>
<g opacity="0.2">
<path opacity="0.2" fill-rule="evenodd" clip-rule="evenodd" d="M551.39 121.442L549.932 119.126C548.838 117.316 549.348 115 551.171 113.841L552.993 112.683L551.39 121.442Z" fill="#564970"/>
</g>
<path fill-rule="evenodd" clip-rule="evenodd" d="M530.394 56.3633L544.318 78.7322C545.411 80.542 544.901 82.8585 543.079 84.0167L535.497 88.7222C533.675 89.808 531.342 89.3013 530.175 87.4915L516.252 65.0502C515.158 63.2405 515.669 60.9239 517.491 59.7657L525.073 55.0602C526.895 54.0468 529.301 54.5535 530.394 56.3633Z" fill="#5F5377"/>
<path fill-rule="evenodd" clip-rule="evenodd" d="M529.156 65.2679L526.458 60.9244L521.501 63.9649L524.199 68.3083L529.156 65.2679ZM532.29 70.2629L529.593 65.9194L524.636 68.9599L527.333 73.3033L532.29 70.2629ZM535.352 75.2579L532.655 70.9144L527.698 73.9549L530.395 78.2983L535.352 75.2579ZM538.487 80.2529L535.79 75.9094L530.832 78.9499L533.53 83.2933L538.487 80.2529ZM518.512 59.1871L517.929 59.549L520.554 63.7477L516.836 65.9918L517.2 66.571L520.918 64.3268L523.615 68.6703L519.897 70.9144L520.262 71.4936L523.98 69.2494L526.677 73.5929L522.959 75.837L523.324 76.4162L527.042 74.172L529.739 78.5155L526.021 80.7596L526.386 81.3388L530.103 79.0946L532.801 83.4381L529.083 85.6822L529.447 86.2614L533.165 84.0172L535.79 88.2159L536.373 87.854L533.894 83.8725L538.851 80.832L541.476 85.0307L542.059 84.6688L539.434 80.4701L543.736 77.7916L543.371 77.2125L539.07 79.8909L536.373 75.5475L540.674 72.869L540.309 72.2899L536.008 74.9683L533.311 70.6249L537.612 67.9464L537.248 67.3673L532.946 70.0457L530.249 65.7023L534.55 63.0238L534.186 62.4447L529.885 65.1231L527.187 60.7797L531.488 58.1012L530.978 57.3049L526.677 59.9834L524.053 55.7847L523.47 56.1466L526.094 60.3453L521.137 63.3857L518.512 59.1871Z" fill="#564970"/>
<g opacity="0.2">
<path opacity="0.2" fill-rule="evenodd" clip-rule="evenodd" d="M533.675 61.6477L530.394 56.3632C529.301 54.5534 526.895 54.0466 525.073 55.1325L519.97 58.3177L533.675 61.6477Z" fill="#564970"/>
</g>
<g opacity="0.2">
<path opacity="0.2" fill-rule="evenodd" clip-rule="evenodd" d="M543.37 77.2116L540.673 72.9405L518.585 68.8142L521.282 73.0853L543.37 77.2116Z" fill="#564970"/>
</g>
<path fill-rule="evenodd" clip-rule="evenodd" d="M528.718 85.1021L530.176 87.4186C531.269 89.2283 533.675 89.7351 535.498 88.6492L537.32 87.491L528.718 85.1021Z" fill="#564970" fill-opacity="0.2"/>
<path fill-rule="evenodd" clip-rule="evenodd" d="M520.99 109.643L525.875 117.389C526.021 117.678 525.948 118.04 525.656 118.185C525.364 118.33 525 118.257 524.854 117.968L519.97 110.222C519.824 109.932 519.897 109.57 520.189 109.426C520.48 109.281 520.845 109.353 520.99 109.643Z" fill="#EE6B41" fill-opacity="0.05"/>
</g>
</g>
</svg>
