<svg xmlns="http://www.w3.org/2000/svg" xmlns:xlink="http://www.w3.org/1999/xlink" viewBox="0 0 454.98 393.5"><defs><style>.cls-1{fill:#fff;}.cls-2{fill:#dfd9ce;opacity:0.12;}.cls-2,.cls-23,.cls-44,.cls-5{isolation:isolate;}.cls-3{fill:#759aa4;}.cls-4{mask:url(#mask);}.cls-5{fill:#4f6879;fill-rule:evenodd;opacity:0.46;}.cls-6{fill:#505150;}.cls-7{fill:#ede7e1;}.cls-8{fill:#ed8370;}.cls-9{fill:#726b65;}.cls-10{fill:#dd5c3c;}.cls-11{fill:#ee6b40;}.cls-12{fill:#f18258;}.cls-13{fill:#dfd8d1;}.cls-14{fill:#b3cad3;}.cls-15{fill:#a3bac7;}.cls-16{fill:#cbdbe2;}.cls-17{fill:#f27766;}.cls-18{fill:#f69c79;}.cls-19{fill:#e7dfca;}.cls-20{fill:#194460;}.cls-21{fill:#a7b2ba;}.cls-22{mask:url(#mask-2);}.cls-23,.cls-31{fill:#1c272b;}.cls-23,.cls-30{opacity:0.19;}.cls-24{mask:url(#mask-3);}.cls-25,.cls-44{fill:#7d9098;}.cls-26{mask:url(#mask-4);}.cls-27{fill:#254d66;}.cls-28{mask:url(#mask-5);}.cls-29{fill:#e9806e;}.cls-32{mask:url(#mask-11);}.cls-33{mask:url(#mask-12);}.cls-34{fill:none;stroke:#0b324b;stroke-opacity:0.22;}.cls-35{mask:url(#mask-18);}.cls-36{mask:url(#mask-19);}.cls-37{fill:#e2e5ea;}.cls-38,.cls-43{fill:#0b324b;}.cls-39{fill:#a2b9c8;}.cls-40{fill:#c0ced7;}.cls-41{fill:#335165;}.cls-42{fill:#4e697a;}.cls-43{fill-opacity:0.36;}.cls-44{opacity:0.25;}.cls-45{fill:#ebf3f9;fill-opacity:0.08;}.cls-46{fill:#e7ebef;fill-opacity:0.32;}</style><mask id="mask" x="255.83" y="131.68" width="199.15" height="229.5" maskUnits="userSpaceOnUse"><g id="mask0"><path class="cls-1" d="M308.22,170.29a88.4,88.4,0,1,0,117.38,42.8A88.36,88.36,0,0,0,308.22,170.29Z"/></g></mask><mask id="mask-2" x="123.07" y="29.01" width="240.01" height="246.06" maskUnits="userSpaceOnUse"><g id="mask3"><path class="cls-1" d="M311.92,29,123.07,224.77l49.3,47.56L361.22,76.57Z"/></g></mask><mask id="mask-3" x="120.63" y="29.01" width="240.59" height="243.32" maskUnits="userSpaceOnUse"><g id="mask4"><path class="cls-1" d="M311.92,29,123.07,224.77l49.3,47.56L361.22,76.57Z"/></g></mask><mask id="mask-4" x="99.68" y="13.52" width="192.36" height="197.96" maskUnits="userSpaceOnUse"><g id="mask5"><path class="cls-1" d="M291.33,28.87c-3.8-3.7-35.3,9.9-44.3,19.3q-9,9.3-127.9,132.5l26.7,25.7q127.65-132.3,127.6-132.3C282.83,64.37,295.13,32.47,291.33,28.87Z"/></g></mask><mask id="mask-5" x="119.13" y="28.25" width="172.91" height="178.12" maskUnits="userSpaceOnUse"><g id="mask6"><path class="cls-1" d="M291.33,28.87c-3.8-3.7-35.3,9.9-44.3,19.3q-9,9.3-127.9,132.5l26.7,25.7q127.65-132.3,127.6-132.3C282.83,64.37,295.13,32.47,291.33,28.87Z"/></g></mask><mask id="mask-11" x="187.28" y="97.84" width="192.02" height="198.17" maskUnits="userSpaceOnUse"><g id="mask12"><path class="cls-1" d="M363.43,98.47c3.8,3.7-8.7,35.7-17.7,45q-9,9.3-127.9,132.5l-26.7-25.7Q318.78,118,318.73,118C328.23,108.27,359.63,94.77,363.43,98.47Z"/></g></mask><mask id="mask-12" x="191.13" y="97.84" width="173" height="178.13" maskUnits="userSpaceOnUse"><g id="mask13"><path class="cls-1" d="M363.43,98.47c3.8,3.7-8.7,35.7-17.7,45q-9,9.3-127.9,132.5l-26.7-25.7Q318.78,118,318.73,118C328.23,108.27,359.63,94.77,363.43,98.47Z"/></g></mask><mask id="mask-18" x="73.63" y="114.97" width="170.56" height="137.44" maskUnits="userSpaceOnUse"><g id="mask19"><path class="cls-1" d="M199.93,148c-34.7,26.5-70.5,23.8-88.9,22.2s-30.9,13.3-30.9,13.3l-6.5,6.8,37.9,62.1,131-135.8,1.6-1.6C234.83,121.77,199.93,148,199.93,148Z"/></g></mask><mask id="mask-19" x="144.83" y="148.77" width="131" height="171.8" maskUnits="userSpaceOnUse"><g id="mask20"><path class="cls-1" d="M227.23,282.27c2.2,18.3-12.1,31.5-12.1,31.5l-6.5,6.8-63.8-36,131-135.8L246,192.47C220.83,228.07,225,263.87,227.23,282.27Z"/></g></mask></defs><title>enterprise</title><g id="Layer_2" data-name="Layer 2"><g id="Layer_1-2" data-name="Layer 1"><path class="cls-2" d="M245.37,247.05a100.3,100.3,0,1,0,103.74-96.84A100.35,100.35,0,0,0,245.37,247.05Z"/><path class="cls-3" d="M308.22,170.29a88.4,88.4,0,1,0,117.38,42.8A88.36,88.36,0,0,0,308.22,170.29Z"/><g class="cls-4"><path class="cls-5" d="M263.15,296.82C218.83,214.09,394.89,276,429.67,208.13c-25.27-34.78-28.94,57-173.84-2.24C286.62,54.93,426.29,181,426.29,181s62.87,96.25-53.9,93.1-1.81,81.06,54.64,14,17,18.67-27,50.22C356.18,369.73,307.51,379.41,263.15,296.82Z"/></g><path class="cls-6" d="M187.73,124.87c-12.1-9.3-21.7-28.6-15.8-43.8,3.5-8.9,15-17.1,24-9.8,10.2,8.3.2,23.3-8.7,27.7-10.4,5.1-23.3,2.7-31.9-4.9-7.7-6.8-9.1-16.6-11.5-26-1.9-7.7-4.8-15.2-11.2-20.3a33.39,33.39,0,0,0-20.3-7.1c-17-.2-33.7,10.5-41.6,25.3-.9,1.7,1.7,3.2,2.6,1.5,9.5-17.8,34.4-30.7,53.4-20.1,10.9,6,13.2,17.2,15.9,28.3,2.4,9.8,6.2,18.1,15,23.7,16.1,10.1,42.7,4.4,45.4-17a14.52,14.52,0,0,0-13.2-16.7c-8.9-.8-16.5,5.4-20,13.2-7.5,16.8,3,38.2,16.6,48.6C187.73,128.67,189.23,126.07,187.73,124.87Z"/><path class="cls-7" d="M106.23,57.27H62.43l-43.7,11.6a7.19,7.19,0,1,0,3.7,13.9L47,76.27l5.3,64.6a9.07,9.07,0,0,0,18.1-.7v-.8l.1-32,10.9,30.2.2.5a8.72,8.72,0,0,0,16.6-5.3l-16.6-61h24.6a5.7,5.7,0,0,0,1.3-.1,7.26,7.26,0,0,0-1.3-14.4Z"/><path class="cls-8" d="M65,64.37l.7-1a2.11,2.11,0,0,0-.5-3l-1.8-1.3a2.11,2.11,0,0,0-3,.5l-1.3,1.8a2.11,2.11,0,0,0,.5,3l.7.5a.91.91,0,0,1,.4.8l1.5,21.2a.55.55,0,0,0,.3.5l4.5,3.3a.71.71,0,0,0,1.1-.2l2.7-5a1.27,1.27,0,0,0,.1-.6l-6.1-19.7A3.09,3.09,0,0,1,65,64.37Z"/><path class="cls-9" d="M44.33,55.07l-4.5-.4a1.77,1.77,0,0,1-1.4-1.1l-1.2-4a1.47,1.47,0,0,1,.6-1.7l3.6-2.7a1.52,1.52,0,0,1,2.4.8l2.1,7.2A1.48,1.48,0,0,1,44.33,55.07Z"/><path class="cls-9" d="M77.83,49l4.1-2a1.65,1.65,0,0,0,.9-1.5l-.3-4.2a1.77,1.77,0,0,0-1.1-1.4L77,38.57a1.53,1.53,0,0,0-2,1.6l.6,7.5A1.55,1.55,0,0,0,77.83,49Z"/><path class="cls-9" d="M55.87,18.38l-1.58.28,1.05,5.81,1.58-.29Z"/><path class="cls-10" d="M54.83,19.77A2.8,2.8,0,1,0,52,17,2.8,2.8,0,0,0,54.83,19.77Z"/><path class="cls-11" d="M54.33,14.27A2.78,2.78,0,0,0,52,17a2.71,2.71,0,0,0,3.1,1.7,2.78,2.78,0,0,0,2.3-2.7A2.89,2.89,0,0,0,54.33,14.27Z"/><path class="cls-12" d="M54.59,16c.44-.08.75-.36.7-.63s-.44-.43-.87-.35-.75.36-.7.63S54.16,16.05,54.59,16Z"/><path class="cls-13" d="M59.63,63.07A19.6,19.6,0,1,0,40,43.47,19.6,19.6,0,0,0,59.63,63.07Z"/><path class="cls-7" d="M59.43,62.07a19.6,19.6,0,1,0-19.6-19.6A19.6,19.6,0,0,0,59.43,62.07Z"/><path class="cls-14" d="M75.23,40c-1.5-8.3-8.2-8.1-17.4-6.4s-15.6,3.8-14.1,12.1,8.5,14.3,18.5,12.5S76.73,48.27,75.23,40Z"/><path class="cls-15" d="M70,33.17c1.6,11.8-1,21.7-11.2,25.2a18.41,18.41,0,0,0,3.3-.3c10-1.8,14.5-9.8,13-18.1C74.53,36.07,72.73,34.07,70,33.17Z"/><path class="cls-16" d="M55.33,54.37a15.77,15.77,0,0,1-6.2-10.3,8.61,8.61,0,0,1-.2-2.7,1.45,1.45,0,0,0-2.7-.8,7.11,7.11,0,0,0-.5,4.7,14,14,0,0,0,5.2,8.7,11.38,11.38,0,0,0,4.2,1.9.66.66,0,0,0,.5-1.2Q55.63,54.52,55.33,54.37Z"/><path class="cls-17" d="M77.4,352.24,37,360.54c-.3.1-.5-.1-.6-.4a.14.14,0,0,1,0-.2l5-40.9a30.32,30.32,0,0,1,60.2,7.3A30.75,30.75,0,0,1,77.4,352.24Z"/><path class="cls-18" d="M82.5,334.24l-26.4,5.4a.52.52,0,0,1-.4-.2l-.1-.1,3.2-26.8a19.85,19.85,0,1,1,23.7,21.7Z"/><path class="cls-19" d="M86.6,319.44l-14.9,3c-.1.1-.2,0-.2-.2l1.8-15a11.09,11.09,0,0,1,22,2.8A10.71,10.71,0,0,1,86.6,319.44Z"/><path class="cls-20" d="M385.33,2.17c-9.1-8.8-58.2,11-73.5,26.9l49.3,47.5C376.73,60.47,394.43,11,385.33,2.17Z"/><path class="cls-21" d="M311.92,29,123.07,224.77l49.3,47.56L361.22,76.57Z"/><g class="cls-22"><path class="cls-23" d="M362.33,97.27c-3.9-3.8-35.7,9.6-44.7,18.9q-9,9.3-127.9,132.5l27.4,26.4q127.65-132.3,127.6-132.3C354.13,133.17,366.23,101.07,362.33,97.27Z"/></g><g class="cls-24"><path class="cls-23" d="M292.83,30.27c-3.8-3.7-35.3,9.9-44.3,19.3q-9,9.3-127.9,132.5l26.7,25.7Q275,75.47,274.93,75.47C284.33,65.87,296.63,34,292.83,30.27Z"/></g><path class="cls-17" d="M94.25,265.66l-4,4.1,15,14.51,4-4.1Z"/><path class="cls-17" d="M117.44,288.13l-4,4.1,15,14.51,4-4.1Z"/><path class="cls-25" d="M106.43,246.67l-6.2,6.5-20.1-19.4a5.7,5.7,0,0,1-.1-8.1l2.3-2.3Z"/><path class="cls-20" d="M115.73,245.67a9.27,9.27,0,0,1-13.3.2l-25.1-24.3a9.41,9.41,0,1,1,13.1-13.5l25.2,24.4A9.61,9.61,0,0,1,115.73,245.67Z"/><path class="cls-25" d="M175.73,313.47l-2.3,2.3a5.7,5.7,0,0,1-8.1.1l-20.1-19.4,6.2-6.5Z"/><path class="cls-20" d="M185,312.47a9.27,9.27,0,0,1-13.3.2l-25.2-24.4a9.41,9.41,0,1,1,13.1-13.5l25.4,24.5A9.71,9.71,0,0,1,185,312.47Z"/><path class="cls-20" d="M291.33,28.87c-3.8-3.7-35.3,9.9-44.3,19.3q-9,9.3-127.9,132.5l26.7,25.7q127.65-132.3,127.6-132.3C282.83,64.37,295.13,32.47,291.33,28.87Z"/><g class="cls-26"><path class="cls-27" d="M276.65,13.52,99.68,197l15,14.51L291.7,28Z"/></g><g class="cls-28"><path class="cls-29" d="M195.73,154.87l2.6-2.7L184.63,139l-2.6,2.7Z"/></g><g class="cls-28"><path class="cls-29" d="M232.73,116.57l2.6-2.7-13.7-13.2-2.6,2.7Z"/></g><g class="cls-28"><path class="cls-29" d="M271,76.87l2.6-2.7L260,60.87l-2.6,2.7Z"/></g><g class="cls-28"><path class="cls-18" d="M257.43,63.57,260,61l-14.9-14.4a34.46,34.46,0,0,0-2.8,2.6Z"/></g><g class="cls-28"><path class="cls-18" d="M219.13,103.27l2.6-2.6-14.9-14.4a34.46,34.46,0,0,0-2.8,2.6Z"/></g><g class="cls-28"><path class="cls-18" d="M182.13,141.57l2.6-2.6-14.9-14.4a34.46,34.46,0,0,0-2.8,2.6Z"/></g><g class="cls-30"><path class="cls-31" d="M371,109.57c3.6,3.4-8.1,33.3-16.5,42q-8.4,8.7-119.3,123.7l-24.9-24q119.1-123.45,119.1-123.5C338.23,118.77,367.53,106.17,371,109.57Z"/></g><path class="cls-20" d="M363.43,98.47c3.8,3.7-8.7,35.7-17.7,45q-9,9.3-127.9,132.5l-26.7-25.7Q318.78,118,318.73,118C328.23,108.27,359.63,94.77,363.43,98.47Z"/><g class="cls-32"><path class="cls-27" d="M379.3,281.5l-177-183.45-15,14.51L364.26,296Z"/></g><g class="cls-33"><path class="cls-29" d="M240.93,198.47l2.6-2.7,13.7,13.2-2.6,2.7Z"/></g><g class="cls-33"><path class="cls-29" d="M277.93,160.17l2.6-2.7,13.7,13.2-2.6,2.7Z"/></g><g class="cls-33"><path class="cls-29" d="M316.23,120.47l2.6-2.7,13.7,13.2-2.6,2.7Z"/></g><g class="cls-33"><path class="cls-18" d="M330,133.57l2.6-2.6,14.9,14.4a34.67,34.67,0,0,1-2.5,2.9Z"/></g><g class="cls-33"><path class="cls-18" d="M291.73,173.27l2.6-2.6,14.9,14.4a34.67,34.67,0,0,1-2.5,2.9Z"/></g><g class="cls-33"><path class="cls-18" d="M254.73,211.57l2.6-2.6,14.9,14.4a34.67,34.67,0,0,1-2.5,2.9Z"/></g><path class="cls-34" d="M277.23,197.77l5.5,5.3,5.3-5.5-5.5-5.3Z"/><path class="cls-34" d="M269.33,206.07l5.5,5.3,5.3-5.5-5.5-5.3Z"/><g class="cls-35"><path class="cls-21" d="M200,148c-34.7,26.5-70.5,23.8-88.9,22.2s-30.9,13.3-30.9,13.3l-6.5,6.8,37.9,62.1,131-135.8,1.6-1.6C234.79,121.81,200,148,200,148Z"/><path class="cls-25" d="M87.1,174.2l-1.32,1.37,55.56,53.6,1.32-1.37Z"/><path class="cls-25" d="M147.89,222.41l-1.3,1.3-54.7-52.8,1.3-1.4Z"/><path class="cls-25" d="M153.39,217.11l-1.3,1.4L97.69,166l1.4-1.4Z"/></g><path class="cls-21" d="M227.23,282.27c2.2,18.3-12.1,31.5-12.1,31.5l-6.5,6.8-63.8-36,131-135.8L246,192.47C220.83,228.07,225,263.87,227.23,282.27Z"/><g class="cls-36"><path class="cls-25" d="M172,256.15l-1.32,1.37,55.56,53.6,1.32-1.37Z"/></g><g class="cls-36"><path class="cls-25" d="M232.83,304.27l-1.4,1.3-54.7-52.8,1.3-1.4Z"/></g><g class="cls-36"><path class="cls-25" d="M238.33,299l-1.4,1.4-54.3-52.5,1.3-1.3Z"/></g><path class="cls-37" d="M298.27,74.71c-.5.3-1.3.7-1.8,1-37.7,20.3-66.4,52.4-66.4,52.4l-121.5,126,17.6,17,181.1-187.7Z"/><path class="cls-37" d="M316.27,91.61c.3-.7.6-1.3.9-2l-9.5-9.1-181.3,188.1,18.8,18.1,121.7-126.1C266.77,160.51,298,130.61,316.27,91.61Z"/><path class="cls-38" d="M121.37,281.3l-5.28,5.47,17.78,17.14,5.28-5.47Z"/><path class="cls-38" d="M98.11,258.9l-5.27,5.47,17.77,17.15,5.28-5.47Z"/><path class="cls-39" d="M280,111.42l-11-10.6a1.82,1.82,0,0,1,0-2.7l.2-.2c4.2-3.4,7.2-5.5,9.1-6.3,3.7-1.8,9.3-2.4,16.6,4.4,7,7,6.7,12.6,5,16.4-.8,1.9-2.8,4.9-6,9.3,0,.1-.1.1-.2.2a1.82,1.82,0,0,1-2.7,0Z"/><path class="cls-40" d="M265.89,126.1l2.1-2.2-16.9-16.3c-.8.6-1.5,1.3-2.3,1.9Z"/><path class="cls-40" d="M283,142.5c.6-.9,1.2-1.5,1.9-2.4L268,123.9l-2.1,2.2Z"/><path class="cls-40" d="M222.11,136.28l-2.5,2.59,17.63,17,2.5-2.59Z"/><path class="cls-40" d="M193.66,165.71l-2.5,2.6,17.63,17,2.5-2.6Z"/><path class="cls-40" d="M211.27,182.73l-2.5,2.59,17.63,17,2.5-2.59Z"/><path class="cls-40" d="M165.21,195.12l-2.5,2.59,17.63,17,2.5-2.59Z"/><path class="cls-40" d="M182.81,212.14l-2.5,2.59,17.64,17,2.5-2.59Z"/><path class="cls-40" d="M136.76,224.66l-2.5,2.59,17.64,17,2.5-2.59Z"/><path class="cls-40" d="M154.44,241.6l-2.5,2.59,17.63,17,2.5-2.59Z"/><path class="cls-40" d="M266.54,122.64,124.42,270l2.74,2.64L269.28,125.28Z"/><path class="cls-41" d="M139.23,303.87,92.73,259l22.5-23.3c10.5-10.9,33.8,11.5,33.8,11.5s23.3,22.4,12.7,33.4Z"/><path class="cls-42" d="M95.35,256.17l-2.64,2.73,46.56,44.92,2.64-2.73Z"/><path class="cls-40" d="M284.13,133.37a1.9,1.9,0,1,0-1.9-1.9A1.9,1.9,0,0,0,284.13,133.37Z"/><path class="cls-40" d="M277.93,127.37a1.9,1.9,0,1,0-1.9-1.9A1.9,1.9,0,0,0,277.93,127.37Z"/><path class="cls-40" d="M267.93,117.67a1.9,1.9,0,1,0-1.9-1.9A1.9,1.9,0,0,0,267.93,117.67Z"/><path class="cls-40" d="M261.73,111.67a1.9,1.9,0,1,0-1.9-1.9A1.9,1.9,0,0,0,261.73,111.67Z"/><path class="cls-43" d="M259.43,161.77l-10.6,11a1.91,1.91,0,0,1-2.7-2.7l10.6-11a1.82,1.82,0,0,1,2.7,0A2,2,0,0,1,259.43,161.77Z"/><path class="cls-43" d="M244.93,176.87a1.91,1.91,0,1,1,0-2.7A2,2,0,0,1,244.93,176.87Z"/><path class="cls-44" d="M104.43,257.77l15.6-16.1,12.4,11.9-15.6,16.1Zm15.6-14.9-14.2,14.7,11,10.6,14.2-14.7Z"/><path class="cls-44" d="M108.58,254.15l-1.32,1.37,11.59,11.18,1.32-1.37Z"/><path class="cls-44" d="M111.63,250.88l-1.32,1.37,11.59,11.18,1.32-1.37Z"/><path class="cls-44" d="M124.84,256.35a2.1,2.1,0,1,0-3,.06A2.1,2.1,0,0,0,124.84,256.35Z"/><path class="cls-45" d="M92.77,386.85a64.3,64.3,0,1,0-86.11-29.2A64.3,64.3,0,0,0,92.77,386.85Z"/><path class="cls-45" d="M86,373a48.9,48.9,0,1,0-65.41-22.25A48.85,48.85,0,0,0,86,373Z"/><path class="cls-46" d="M274.13,98.37c-1.5,1.5-.9,1.7,8.3,10.6s9.3,9.6,10.9,7.9c1.5-1.5-.4-8.1-5.7-13.2S275.53,96.77,274.13,98.37Z"/><path class="cls-46" d="M293.93,107.77a1.9,1.9,0,1,0-1.9-1.9A1.9,1.9,0,0,0,293.93,107.77Z"/><path class="cls-46" d="M294.25,102.15a2.66,2.66,0,1,0-3.33-.29A2.38,2.38,0,0,0,294.25,102.15Z"/><path class="cls-20" d="M315.53,93.37l-18.6-17.9c13.5-8.1,21.9-10.6,25.1-7.5S323.13,79.57,315.53,93.37Z"/><path class="cls-42" d="M338.63,94.47l2.6-2.7-8.2-7.9-2.6,2.7Zm-1.3,1.4-8.2-7.9-2.6,2.7,8.2,7.9Zm5.2-5.5,2.6-2.7-8.2-7.9-2.6,2.7Zm4-4.1,2.6-2.7-8.2-7.9-2.6,2.7Zm4-4.1,2.6-2.7-8.2-7.9-2.6,2.7Zm5.3-2.8-21.1,21.9-11-10.6,21.1-21.9Z"/></g></g></svg>