<svg width="316" height="314" viewBox="0 0 316 314" fill="none" xmlns="http://www.w3.org/2000/svg">
<g clip-path="url(#clip0)">
<path d="M12.3 184.3C22.1 202 37 216.2 52 229.8C69.1 245.2 97.7 301.6 178.7 280.8C207.9 273.3 234.5 257.9 256.2 237C269.4 224.3 281.9 210.8 292.1 195.6C308.4 171.4 318.8 141.9 314.9 112.9C311 83.9 290.7 56.3 262.3 49.4C235.7 42.9 207.8 54.7 180.5 52.3C159.1 50.4 139.3 39.9 118.2 36.1C80.9 29.4 40.4 45.9 18.3 76.7C-3.80003 107.5 -6.10003 151.2 12.3 184.3Z" fill="#1C272B"/>
<path opacity="0.48" d="M155.7 312C120.4 312.1 91.7001 243.9 91.5001 159.8C91.3001 75.7 119.9 7.50002 155.2 7.40002" stroke="#D4D4D4" stroke-width="3" stroke-miterlimit="10"/>
<path opacity="0.48" d="M47.8001 267.4C22.9001 242.5 50.8001 174 110.3 114.6C169.8 55.2 238.2 27.1 263.1 52" stroke="#D4D4D4" stroke-width="3" stroke-miterlimit="10"/>
<path opacity="0.48" d="M47.8003 52C72.7003 27.1 141.2 55 200.6 114.5C260 174 288.1 242.4 263.1 267.3" stroke="#D4D4D4" stroke-width="3" stroke-miterlimit="10"/>
<path opacity="0.48" d="M307.7 159.7C307.7 195 239.5 223.6 155.4 223.6C71.3002 223.6 3.2002 195 3.2002 159.7" stroke="#D4D4D4" stroke-width="3" stroke-miterlimit="10"/>
<path opacity="0.12" d="M158.5 57V73.7C175.6 74.2 189.4 88.2 189.4 105.4V111.5H158.5V128.2H206.1V105.4C206.1 79.1 184.8 57.5 158.5 57Z" fill="black"/>
<path d="M207.1 108.2H206.1V105.5C206.1 78.8 184.4 57 157.6 57C130.9 57 109.1 78.7 109.1 105.5V108.2H108.1C96.5 108.2 87 117.6 87 129.3V211.7C87 223.3 96.4 232.8 108.1 232.8H207.1C218.7 232.8 228.2 223.4 228.2 211.7V129.3C228.2 117.6 218.8 108.2 207.1 108.2ZM125.9 105.5C125.9 88 140.1 73.8 157.6 73.8C175.1 73.8 189.3 88 189.3 105.5V108.2H125.8V105.5H125.9Z" fill="#F4815B"/>
<path d="M172.9 174.3C172.9 166.3 166.5 159.9 158.5 159.9C150.5 159.9 144.1 166.3 144.1 174.3C144.1 180.2 147.7 185.3 152.8 187.5V203.9H164.2V187.5C169.3 185.4 172.9 180.3 172.9 174.3Z" fill="#504F56"/>
<path d="M122.9 132.1H100.3C98.3002 132.1 96.7002 130.5 96.7002 128.5C96.7002 126.5 98.3002 124.9 100.3 124.9H122.9C124.9 124.9 126.5 126.5 126.5 128.5C126.5 130.4 124.9 132.1 122.9 132.1Z" fill="#FFF2D9"/>
<path d="M134.6 130.9C136.257 130.9 137.6 129.557 137.6 127.9C137.6 126.243 136.257 124.9 134.6 124.9C132.943 124.9 131.6 126.243 131.6 127.9C131.6 129.557 132.943 130.9 134.6 130.9Z" fill="#FFF2D9"/>
<path d="M146.2 130.7C147.857 130.7 149.2 129.357 149.2 127.7C149.2 126.043 147.857 124.7 146.2 124.7C144.543 124.7 143.2 126.043 143.2 127.7C143.2 129.357 144.543 130.7 146.2 130.7Z" fill="#FFF2D9"/>
<path opacity="0.12" d="M207.1 108.2H158.5V232.8H207.1C218.7 232.8 228.2 223.4 228.2 211.7V129.3C228.2 117.6 218.8 108.2 207.1 108.2Z" fill="black"/>
<path opacity="0.23" d="M198.5 232.8C202 217.4 204.4 200.7 205.5 183.3C213.8 174.1 221.4 164.7 228.2 155.3V150.1C221.6 159.5 214.1 169 205.7 178.5C206 172.3 206.2 166.1 206.2 159.8C206.2 145.1 205.3 130.8 203.7 117.1C211.6 118.2 219.3 119.6 226.6 121.2C226.1 120 225.5 118.8 224.7 117.7C217.8 116.2 210.7 115 203.3 114C201.5 100.4 199 87.6 195.6 75.6C194.2 73.8 192.7 72.2 191.1 70.6C195 83.5 198.1 98 200.2 113.5C189.6 112.1 178.5 111.3 167.2 110.9C167.1 109.9 166.9 109 166.5 108.2H153.2C152.8 109 152.6 109.8 152.5 110.8C131 111 110.3 113 91.3001 116.7C90.5001 117.8 89.8001 118.9 89.2001 120.2C108.5 116.3 130 114 152.8 113.9C153.8 116.9 156.6 119.1 159.9 119.1C163.2 119.1 165.9 117 166.9 114.1C178.6 114.5 189.9 115.4 200.7 116.8C202.4 130.5 203.3 145 203.3 159.9C203.3 167.5 203.1 174.9 202.6 182.2C198.7 186.5 194.7 190.7 190.5 194.9C188.7 196.7 186.9 198.5 185 200.3C183.7 199.3 182.1 198.7 180.3 198.7C176.2 198.7 172.9 202 172.9 206.1C172.9 207.6 173.4 209.1 174.2 210.3C167.6 216.1 161 221.6 154.3 226.6C145.9 219.7 137.6 212.1 129.6 204C113 187.4 98.6001 169.9 87.1001 152.5V157.9C98.3001 174.3 111.9 190.6 127.4 206.2C135.3 214.1 143.5 221.6 151.8 228.5C149.7 230.1 147.6 231.6 145.5 233.1H150.7C151.9 232.2 153.1 231.4 154.2 230.5C155.3 231.4 156.4 232.2 157.4 233.1H162.2C160.3 231.6 158.5 230.2 156.6 228.7C163.2 223.7 169.8 218.3 176.3 212.5C177.5 213.2 178.8 213.7 180.3 213.7C184.4 213.7 187.7 210.4 187.7 206.3C187.7 205.1 187.4 203.9 186.8 202.8C188.7 201 190.6 199.1 192.5 197.2C195.8 193.9 199 190.5 202.2 187.1C201 203.5 198.6 219 195.4 233.1H198.5V232.8Z" fill="#1C272B"/>
<path opacity="0.12" d="M207.1 108.2H108.1C96.5 108.2 87 117.6 87 129.3V140.2H228.2V129.3C228.2 117.6 218.8 108.2 207.1 108.2Z" fill="black"/>
<path opacity="0.48" d="M263.1 267.4C238.2 292.3 169.7 264.4 110.3 204.9C50.9 145.4 22.8 77 47.8 52" stroke="#D4D4D4" stroke-width="3" stroke-miterlimit="10"/>
<path opacity="0.48" d="M3.2002 159.7C3.2002 124.4 71.4002 95.8 155.5 95.8C239.6 95.8 307.8 124.4 307.8 159.7" stroke="#D4D4D4" stroke-width="3" stroke-miterlimit="10"/>
<path d="M48.5001 59.4C52.587 59.4 55.9001 56.0869 55.9001 52C55.9001 47.9131 52.587 44.6 48.5001 44.6C44.4132 44.6 41.1001 47.9131 41.1001 52C41.1001 56.0869 44.4132 59.4 48.5001 59.4Z" fill="#766991"/>
<path d="M263.9 274.8C267.987 274.8 271.3 271.487 271.3 267.4C271.3 263.313 267.987 260 263.9 260C259.813 260 256.5 263.313 256.5 267.4C256.5 271.487 259.813 274.8 263.9 274.8Z" fill="#FCB315"/>
<path d="M102 251C106.087 251 109.4 247.687 109.4 243.6C109.4 239.513 106.087 236.2 102 236.2C97.9132 236.2 94.6001 239.513 94.6001 243.6C94.6001 247.687 97.9132 251 102 251Z" fill="#F36C3D"/>
<path d="M19.2003 138.6C23.2872 138.6 26.6003 135.287 26.6003 131.2C26.6003 127.113 23.2872 123.8 19.2003 123.8C15.1134 123.8 11.8003 127.113 11.8003 131.2C11.8003 135.287 15.1134 138.6 19.2003 138.6Z" fill="#DBE8F1"/>
<path d="M159.9 102.5C163.987 102.5 167.3 99.1869 167.3 95.1C167.3 91.013 163.987 87.7 159.9 87.7C155.813 87.7 152.5 91.013 152.5 95.1C152.5 99.1869 155.813 102.5 159.9 102.5Z" fill="#655C80"/>
<path d="M308.2 169.5C312.287 169.5 315.6 166.187 315.6 162.1C315.6 158.013 312.287 154.7 308.2 154.7C304.113 154.7 300.8 158.013 300.8 162.1C300.8 166.187 304.113 169.5 308.2 169.5Z" fill="#F36C3D"/>
<path opacity="0.48" d="M263.1 52C288 76.9 260.1 145.4 200.6 204.8C141.1 264.2 72.7003 292.3 47.8003 267.4" stroke="#D4D4D4" stroke-width="3" stroke-miterlimit="10"/>
<path d="M191.1 221.3C195.187 221.3 198.5 217.987 198.5 213.9C198.5 209.813 195.187 206.5 191.1 206.5C187.013 206.5 183.7 209.813 183.7 213.9C183.7 217.987 187.013 221.3 191.1 221.3Z" fill="#315562"/>
<path opacity="0.48" d="M155.2 7.40001C190.5 7.30001 219.2 75.5 219.4 159.6C219.6 243.7 191 311.9 155.7 312" stroke="#D4D4D4" stroke-width="3" stroke-miterlimit="10"/>
<path d="M155.7 14.8C159.787 14.8 163.1 11.4869 163.1 7.4C163.1 3.31309 159.787 0 155.7 0C151.613 0 148.3 3.31309 148.3 7.4C148.3 11.4869 151.613 14.8 155.7 14.8Z" fill="#F36C3D"/>
<path d="M182.1 307.1C186.187 307.1 189.5 303.787 189.5 299.7C189.5 295.613 186.187 292.3 182.1 292.3C178.013 292.3 174.7 295.613 174.7 299.7C174.7 303.787 178.013 307.1 182.1 307.1Z" fill="#DBE8F1"/>
<path fill-rule="evenodd" clip-rule="evenodd" d="M22.1 88.2L19.4 95.6L12 98.3L19.4 101L22.1 108.4L24.8 101L32.2 98.3L24.8 95.6L22.1 88.2Z" fill="#F36C3D"/>
<path fill-rule="evenodd" clip-rule="evenodd" d="M289.9 91L287.2 98.4L279.8 101.1L287.2 103.8L289.9 111.2L292.6 103.8L300 101.1L292.6 98.4L289.9 91Z" fill="#6D7F91"/>
<path fill-rule="evenodd" clip-rule="evenodd" d="M157.7 263.1L155 270.5L147.6 273.2L155 275.9L157.7 283.3L160.4 275.9L167.8 273.2L160.4 270.5L157.7 263.1Z" fill="#6D7F91"/>
<path fill-rule="evenodd" clip-rule="evenodd" d="M272.2 147.8L269.7 154.5L263 157L269.7 159.5L272.2 166.2L274.7 159.5L281.4 157L274.7 154.5L272.2 147.8Z" fill="#CDDCE6"/>
</g>
<defs>
<clipPath id="clip0">
<rect width="315.8" height="313.5" fill="white"/>
</clipPath>
</defs>
</svg>
