<svg width="344" height="250" viewBox="0 0 344 250" fill="none" xmlns="http://www.w3.org/2000/svg">
<path d="M343.591 135.5C343.591 163.5 306.191 211.7 262.791 226.2C220.491 240.3 128.191 257.5 69.9909 235.2C-7.00911 205.7 -26.8091 90.2 42.6909 64.7C90.5909 47.2 148.891 -9.20001 208.391 2.59999C276.491 16.1 343.591 59.7 343.591 135.5Z" fill="#1C272B"/>
<g clip-path="url(#clip0)">
<path d="M181.791 138H179.791V140.5H181.791V138Z" fill="white"/>
<path d="M181.791 144.9H179.791V149.3H181.791V144.9Z" fill="white"/>
<path d="M181.791 157.3H178.291V155.3H179.791V153.8H181.791V157.3Z" fill="white"/>
<path d="M173.191 157.3H168.191V155.3H173.191V157.3ZM163.191 157.3H158.191V155.3H163.191V157.3ZM153.091 157.3H148.091V155.3H153.091V157.3ZM142.991 157.3H137.991V155.3H142.991V157.3ZM132.991 157.3H127.991V155.3H132.991V157.3ZM122.891 157.3H117.891V155.3H122.891V157.3ZM112.791 157.3H107.791V155.3H112.791V157.3ZM102.791 157.3H97.7908V155.3H102.791V157.3ZM92.6908 157.3H87.6908V155.3H92.6908V157.3ZM82.5908 157.3H77.5908V155.3H82.5908V157.3ZM72.5908 157.3H67.5908V155.3H72.5908V157.3Z" fill="white"/>
<path d="M60.9907 158.8H58.9907V155.3H62.4907V157.3H60.9907V158.8Z" fill="white"/>
<path d="M60.9907 163.4H58.9907V168H60.9907V163.4Z" fill="white"/>
<path d="M60.9907 172.6H58.9907V175.1H60.9907V172.6Z" fill="white"/>
<path d="M303.131 172.559L301.132 172.642L301.237 175.14L303.235 175.056L303.131 172.559Z" fill="white"/>
<path d="M302.787 163.358L300.789 163.441L300.981 168.037L302.979 167.954L302.787 163.358Z" fill="white"/>
<path d="M300.591 158.8L300.491 157.3H298.991V155.3H302.391L302.591 158.8H300.591Z" fill="white"/>
<path d="M294.09 157.3H289.19V155.3H294.09V157.3ZM284.29 157.3H279.39V155.3H284.29V157.3ZM274.49 157.3H269.59V155.3H274.49V157.3ZM264.69 157.3H259.79V155.3H264.69V157.3ZM254.89 157.3H249.99V155.3H254.89V157.3ZM245.09 157.3H240.19V155.3H245.09V157.3ZM235.29 157.3H230.39V155.3H235.29V157.3ZM225.49 157.3H220.59V155.3H225.49V157.3ZM215.69 157.3H210.79V155.3H215.69V157.3ZM205.89 157.3H200.99V155.3H205.89V157.3ZM196.09 157.3H191.19V155.3H196.09V157.3Z" fill="white"/>
<path d="M186.291 155.3H183.791V157.3H186.291V155.3Z" fill="white"/>
<path d="M146.091 175.1H144.091V170.3H146.091V175.1ZM146.091 165.3H144.091V160.3H146.091V165.3Z" fill="white"/>
<path d="M219.391 175.1H217.391V170.3H219.391V175.1ZM219.391 165.3H217.391V160.3H219.391V165.3Z" fill="white"/>
</g>
<path fill-rule="evenodd" clip-rule="evenodd" d="M72.6908 86.3L69.9908 93.7L62.5908 96.4L69.9908 99.1L72.6908 106.5L75.3908 99.1L82.7908 96.4L75.3908 93.7L72.6908 86.3Z" fill="#6D7F91"/>
<path fill-rule="evenodd" clip-rule="evenodd" d="M317.191 108.7L314.491 116.1L307.091 118.8L314.491 121.5L317.191 128.9L319.891 121.5L327.291 118.8L319.891 116.1L317.191 108.7Z" fill="#315562"/>
<path fill-rule="evenodd" clip-rule="evenodd" d="M34.7909 116.8L30.5909 128.2L19.1909 132.4L30.5909 136.6L34.7909 148L38.9909 136.6L50.3909 132.4L38.9909 128.1L34.7909 116.8Z" fill="#F36C3D"/>
<path fill-rule="evenodd" clip-rule="evenodd" d="M277.991 67L275.291 74.4L267.891 77.1L275.291 79.8L277.991 87.2L280.691 79.8L288.091 77.1L280.691 74.4L277.991 67Z" fill="#CDDCE6"/>
<path d="M252.891 132.6H106.491C104.991 132.6 103.791 131.4 103.791 129.9V38.3C103.791 36.8 104.991 35.6 106.491 35.6H252.791C254.291 35.6 255.491 36.8 255.491 38.3V129.9C255.591 131.4 254.391 132.6 252.891 132.6Z" fill="#505050" stroke="#505050" stroke-miterlimit="10"/>
<path d="M105.691 35.7999H254.091C254.891 35.7999 255.591 36.4999 255.591 37.2999V130.8C255.591 131.6 254.891 132.3 254.091 132.3H105.691C104.891 132.3 104.191 131.6 104.191 130.8V37.2999C104.191 36.4999 104.891 35.7999 105.691 35.7999Z" fill="white"/>
<mask id="mask0" mask-type="alpha" maskUnits="userSpaceOnUse" x="104" y="35" width="152" height="98">
<path d="M105.691 35.7999H254.091C254.891 35.7999 255.591 36.4999 255.591 37.2999V130.8C255.591 131.6 254.891 132.3 254.091 132.3H105.691C104.891 132.3 104.191 131.6 104.191 130.8V37.2999C104.191 36.4999 104.891 35.7999 105.691 35.7999Z" fill="white"/>
</mask>
<g mask="url(#mask0)">
<path d="M255.591 53.7H142.791V127H255.591V53.7Z" fill="#E6E6E6"/>
<path d="M255.591 73.2H142.791V91.2H255.591V73.2Z" fill="#FAFAFA"/>
<path d="M244.191 97.8999H255.591V127.1H142.791V97.8999H244.191Z" fill="#FAFAFA"/>
<path d="M144.291 50.7999C144.291 50.3999 144.591 49.9999 145.091 49.9999H158.691C159.091 49.9999 159.491 50.2999 159.491 50.7999V53.7999H144.391V50.7999H144.291Z" fill="#E6E6E6"/>
<path d="M160.191 50.7999C160.191 50.3999 160.491 49.9999 160.991 49.9999H174.591C174.991 49.9999 175.391 50.2999 175.391 50.7999V53.7999H160.291V50.7999H160.191Z" fill="#F0F0F0"/>
<path d="M176.091 50.7999C176.091 50.3999 176.391 49.9999 176.891 49.9999H190.491C190.891 49.9999 191.291 50.2999 191.291 50.7999V53.7999H176.191V50.7999H176.091Z" fill="#F0F0F0"/>
<path d="M191.991 50.7999C191.991 50.3999 192.291 49.9999 192.791 49.9999H206.391C206.791 49.9999 207.191 50.2999 207.191 50.7999V53.7999H191.991V50.7999Z" fill="#F0F0F0"/>
<path d="M148.091 57.4999H222.991C223.391 57.4999 223.791 57.7999 223.791 58.2999V62.7999C223.791 63.1999 223.491 63.5999 222.991 63.5999H148.091C147.691 63.5999 147.291 63.2999 147.291 62.7999V58.2999C147.291 57.7999 147.691 57.4999 148.091 57.4999Z" fill="white"/>
<path d="M228.291 57.4999H237.391C237.791 57.4999 238.191 57.7999 238.191 58.2999V62.7999C238.191 63.1999 237.891 63.5999 237.391 63.5999H228.291C227.891 63.5999 227.491 63.2999 227.491 62.7999V58.2999C227.591 57.7999 227.891 57.4999 228.291 57.4999Z" fill="#097BED"/>
<path d="M241.891 57.4999H250.991C251.391 57.4999 251.791 57.7999 251.791 58.2999V62.7999C251.791 63.1999 251.491 63.5999 250.991 63.5999H241.891C241.491 63.5999 241.091 63.2999 241.091 62.7999V58.2999C241.191 57.7999 241.491 57.4999 241.891 57.4999Z" fill="#DCDCDC"/>
<path d="M142.791 43.2999H104.191V127.1H142.791V43.2999Z" fill="#F0F0F0"/>
<path d="M109.091 47.7999H137.191C138.591 47.7999 139.791 48.9999 139.791 50.3999C139.791 51.7999 138.591 52.9999 137.191 52.9999H109.091C107.691 52.9999 106.491 51.7999 106.491 50.3999C106.491 48.8999 107.691 47.7999 109.091 47.7999Z" fill="white"/>
<path d="M142.791 60.4999H104.191V127.1H142.791V60.4999Z" fill="#FAFAFA"/>
<path d="M108.791 63.4999H106.491V65.6999H108.791V63.4999Z" fill="#DCDCDC"/>
<path d="M136.791 63.4999H111.791V65.6999H136.791V63.4999Z" fill="#DCDCDC"/>
<path d="M142.791 68.7H104.191V69.4H142.791V68.7Z" fill="#F0F0F0"/>
<path d="M108.791 72.3999H106.491V74.5999H108.791V72.3999Z" fill="#DCDCDC"/>
<path d="M136.791 72.3999H111.791V74.5999H136.791V72.3999Z" fill="#DCDCDC"/>
<path d="M142.791 77.7H104.191V78.4H142.791V77.7Z" fill="#F0F0F0"/>
<path d="M108.791 81.3999H106.491V83.5999H108.791V81.3999Z" fill="#DCDCDC"/>
<path d="M136.791 81.3999H111.791V83.5999H136.791V81.3999Z" fill="#DCDCDC"/>
<path d="M142.791 86.7H104.191V87.4H142.791V86.7Z" fill="#F0F0F0"/>
<path d="M175.391 73.2H174.591V91.2H175.391V73.2Z" fill="#F0F0F0"/>
<path d="M108.791 90.3999H106.491V92.5999H108.791V90.3999Z" fill="#DCDCDC"/>
<path d="M136.791 90.3999H111.791V92.5999H136.791V90.3999Z" fill="#DCDCDC"/>
<path d="M142.791 95.6H104.191V96.3H142.791V95.6Z" fill="#F0F0F0"/>
<path d="M105.691 35.7999H254.091C254.891 35.7999 255.591 36.4999 255.591 37.2999V44.8999H104.191V37.2999C104.191 36.4999 104.891 35.7999 105.691 35.7999Z" fill="#505050"/>
<path d="M255.591 126.3H104.191V132.3H255.591V126.3Z" fill="#F0F0F0"/>
<path d="M107.191 37.9999H114.791C115.191 37.9999 115.591 38.2999 115.591 38.7999V41.7999C115.591 42.1999 115.291 42.5999 114.791 42.5999H107.191C106.791 42.5999 106.391 42.2999 106.391 41.7999V38.7999C106.491 38.3999 106.791 37.9999 107.191 37.9999Z" fill="#F47023"/>
<path d="M117.791 37.9999H123.891C124.291 37.9999 124.691 38.2999 124.691 38.7999V41.7999C124.691 42.1999 124.391 42.5999 123.891 42.5999H117.791C117.391 42.5999 116.991 42.2999 116.991 41.7999V38.7999C117.091 38.3999 117.391 37.9999 117.791 37.9999Z" fill="#585858"/>
<path d="M126.891 37.9999H132.991C133.391 37.9999 133.791 38.2999 133.791 38.7999V41.7999C133.791 42.1999 133.491 42.5999 132.991 42.5999H126.891C126.491 42.5999 126.091 42.2999 126.091 41.7999V38.7999C126.191 38.3999 126.491 37.9999 126.891 37.9999Z" fill="#585858"/>
<path d="M169.291 38.7999H190.491C190.891 38.7999 191.291 39.0999 191.291 39.5999V41.0999C191.291 41.4999 190.991 41.8999 190.491 41.8999H169.291C168.891 41.8999 168.491 41.5999 168.491 41.0999V39.5999C168.491 39.0999 168.891 38.7999 169.291 38.7999Z" fill="#909090"/>
<path d="M154.191 69.4999H145.091V71.6999H154.191V69.4999Z" fill="#DCDCDC"/>
<path d="M147.291 79.8999H169.991C170.391 79.8999 170.791 80.1999 170.791 80.6999V82.8999C170.791 83.2999 170.491 83.6999 169.991 83.6999H147.291C146.891 83.6999 146.491 83.3999 146.491 82.8999V80.6999C146.591 80.2999 146.891 79.8999 147.291 79.8999Z" fill="#DCDCDC"/>
<path d="M118.491 55.9999H108.691V58.1999H118.491V55.9999Z" fill="#DCDCDC"/>
<path d="M137.491 55.9999H127.691V58.1999H137.491V55.9999Z" fill="#DCDCDC"/>
<path d="M154.191 93.3999H145.091V95.5999H154.191V93.3999Z" fill="#DCDCDC"/>
<path d="M166.291 93.3999H160.191V95.5999H166.291V93.3999Z" fill="#DCDCDC"/>
<path d="M177.691 93.3999H171.591V95.5999H177.691V93.3999Z" fill="#DCDCDC"/>
<path d="M188.991 93.3999H182.891V95.5999H188.991V93.3999Z" fill="#DCDCDC"/>
<path d="M238.891 79.2H191.991V81.4H238.891V79.2Z" fill="#DCDCDC"/>
<path d="M223.691 83.7H207.091V85.9H223.691V83.7Z" fill="#DCDCDC"/>
<path d="M161.691 105.4H145.091V107.6H161.691V105.4Z" fill="#DCDCDC"/>
<path d="M176.891 109.9H145.091V112.1H176.891V109.9Z" fill="#DCDCDC"/>
<path d="M199.591 114.3H145.091V116.5H199.591V114.3Z" fill="#DCDCDC"/>
<path d="M184.491 118.8H145.091V121H184.491V118.8Z" fill="#DCDCDC"/>
<path d="M169.291 123.3H145.091V125.5H169.291V123.3Z" fill="#DCDCDC"/>
<path d="M167.791 69.4999H160.191V71.6999H167.791V69.4999Z" fill="#DCDCDC"/>
<path d="M179.891 69.4999H173.791V71.6999H179.891V69.4999Z" fill="#DCDCDC"/>
<path d="M191.991 69.4999H185.891V71.6999H191.991V69.4999Z" fill="#DCDCDC"/>
<path d="M204.191 69.4999H198.091V71.6999H204.191V69.4999Z" fill="#DCDCDC"/>
<path d="M156.391 72.3999H142.791V73.0999H156.391V72.3999Z" fill="#F47023"/>
<path d="M142.791 59.7H123.891V60.4H142.791V59.7Z" fill="#F47023"/>
<path d="M156.391 97.1H142.791V97.8H156.391V97.1Z" fill="#F47023"/>
<path d="M232.091 38.7999H229.091V41.7999H232.091V38.7999Z" fill="#909090"/>
<path d="M215.391 38.7999H212.391V41.7999H215.391V38.7999Z" fill="#909090"/>
<path d="M238.091 38.7999H235.091V41.7999H238.091V38.7999Z" fill="#909090"/>
<path d="M244.191 38.7999H241.191V41.7999H244.191V38.7999Z" fill="#909090"/>
<path d="M250.191 37.9999C251.491 37.9999 252.491 38.9999 252.491 40.1999C252.491 41.3999 251.491 42.3999 250.291 42.3999H250.191C248.991 42.3999 247.991 41.3999 247.991 40.1999C247.991 38.9999 248.991 37.9999 250.191 37.9999Z" fill="#909090"/>
<path d="M220.691 37.9999C221.991 37.9999 222.991 38.9999 222.991 40.1999C222.991 41.3999 221.991 42.3999 220.791 42.3999H220.691C219.491 42.3999 218.491 41.3999 218.491 40.1999C218.491 38.9999 219.491 37.9999 220.691 37.9999Z" fill="#F47023"/>
</g>
<path d="M252.891 132.6H106.491C104.991 132.6 103.791 131.4 103.791 129.9V38.3C103.791 36.8 104.991 35.6 106.491 35.6H252.791C254.291 35.6 255.491 36.8 255.491 38.3V129.9C255.591 131.4 254.391 132.6 252.891 132.6Z" stroke="#505050" stroke-miterlimit="10"/>
<path fill-rule="evenodd" clip-rule="evenodd" d="M86.9907 238.475C86.9907 223.107 74.4547 210.65 58.9907 210.65C43.5267 210.65 30.9907 223.107 30.9907 238.475C30.9907 253.842 86.9907 253.842 86.9907 238.475Z" fill="#FF6C37"/>
<mask id="mask1" mask-type="alpha" maskUnits="userSpaceOnUse" x="30" y="210" width="57" height="40">
<path fill-rule="evenodd" clip-rule="evenodd" d="M86.9907 238.475C86.9907 223.107 74.4547 210.65 58.9907 210.65C43.5267 210.65 30.9907 223.107 30.9907 238.475C30.9907 253.842 86.9907 253.842 86.9907 238.475Z" fill="white"/>
</mask>
<g mask="url(#mask1)">
<path fill-rule="evenodd" clip-rule="evenodd" d="M31.1321 237.658C43.1358 243.269 76.5187 232.583 80.5687 221.103C84.6464 225.936 87.1016 232.167 87.1016 238.968C87.1016 254.335 31.1016 254.335 31.1016 238.968C31.1016 238.529 31.1118 238.092 31.1321 237.658Z" fill="#FF6C37" fill-opacity="0.3" style="mix-blend-mode:multiply"/>
<path d="M58.9908 216C65.7409 216 71.213 214.097 71.213 211.75C71.213 209.403 65.7409 207.5 58.9908 207.5C52.2406 207.5 46.7686 209.403 46.7686 211.75C46.7686 214.097 52.2406 216 58.9908 216Z" fill="#E24F30"/>
</g>
<path fill-rule="evenodd" clip-rule="evenodd" d="M58.9906 214.406C68.0112 214.406 75.3239 207.152 75.3239 198.203C75.3239 189.254 68.0112 182 58.9906 182C49.9699 182 42.6572 189.254 42.6572 198.203C42.6572 207.152 49.9699 214.406 58.9906 214.406Z" fill="#FF6C37"/>
<mask id="mask2" mask-type="alpha" maskUnits="userSpaceOnUse" x="42" y="182" width="34" height="33">
<path fill-rule="evenodd" clip-rule="evenodd" d="M58.9906 214.406C68.0112 214.406 75.3239 207.152 75.3239 198.203C75.3239 189.254 68.0112 182 58.9906 182C49.9699 182 42.6572 189.254 42.6572 198.203C42.6572 207.152 49.9699 214.406 58.9906 214.406Z" fill="white"/>
</mask>
<g mask="url(#mask2)">
<path fill-rule="evenodd" clip-rule="evenodd" d="M70.8793 190.917C70.8793 199.866 63.5666 207.12 54.546 207.12C50.4756 207.12 46.753 205.643 43.8931 203.2C46.0163 209.704 52.172 214.406 59.4349 214.406C68.4555 214.406 75.7682 207.152 75.7682 198.203C75.7682 193.292 73.566 188.892 70.0878 185.92C70.6016 187.494 70.8793 189.174 70.8793 190.917Z" fill="#FF6C37" fill-opacity="0.3" style="mix-blend-mode:multiply"/>
</g>
<path fill-rule="evenodd" clip-rule="evenodd" d="M167.991 238.475C167.991 223.107 155.455 210.65 139.991 210.65C124.527 210.65 111.991 223.107 111.991 238.475C111.991 253.842 167.991 253.842 167.991 238.475Z" fill="#FF6C37"/>
<mask id="mask3" mask-type="alpha" maskUnits="userSpaceOnUse" x="111" y="210" width="57" height="40">
<path fill-rule="evenodd" clip-rule="evenodd" d="M167.991 238.475C167.991 223.107 155.455 210.65 139.991 210.65C124.527 210.65 111.991 223.107 111.991 238.475C111.991 253.842 167.991 253.842 167.991 238.475Z" fill="white"/>
</mask>
<g mask="url(#mask3)">
<path fill-rule="evenodd" clip-rule="evenodd" d="M112.132 237.658C124.136 243.269 157.519 232.583 161.569 221.103C165.646 225.936 168.102 232.167 168.102 238.968C168.102 254.335 112.102 254.335 112.102 238.968C112.102 238.529 112.112 238.092 112.132 237.658Z" fill="#FF6C37" fill-opacity="0.3" style="mix-blend-mode:multiply"/>
<path d="M139.991 216C146.741 216 152.213 214.097 152.213 211.75C152.213 209.403 146.741 207.5 139.991 207.5C133.241 207.5 127.769 209.403 127.769 211.75C127.769 214.097 133.241 216 139.991 216Z" fill="#E24F30"/>
</g>
<path fill-rule="evenodd" clip-rule="evenodd" d="M139.991 214.406C149.011 214.406 156.324 207.152 156.324 198.203C156.324 189.254 149.011 182 139.991 182C130.97 182 123.657 189.254 123.657 198.203C123.657 207.152 130.97 214.406 139.991 214.406Z" fill="#FF6C37"/>
<mask id="mask4" mask-type="alpha" maskUnits="userSpaceOnUse" x="123" y="182" width="34" height="33">
<path fill-rule="evenodd" clip-rule="evenodd" d="M139.991 214.406C149.011 214.406 156.324 207.152 156.324 198.203C156.324 189.254 149.011 182 139.991 182C130.97 182 123.657 189.254 123.657 198.203C123.657 207.152 130.97 214.406 139.991 214.406Z" fill="white"/>
</mask>
<g mask="url(#mask4)">
<path fill-rule="evenodd" clip-rule="evenodd" d="M151.879 190.917C151.879 199.866 144.567 207.12 135.546 207.12C131.476 207.12 127.753 205.643 124.893 203.2C127.016 209.704 133.172 214.406 140.435 214.406C149.456 214.406 156.768 207.152 156.768 198.203C156.768 193.292 154.566 188.892 151.088 185.92C151.602 187.494 151.879 189.174 151.879 190.917Z" fill="#FF6C37" fill-opacity="0.3" style="mix-blend-mode:multiply"/>
</g>
<path fill-rule="evenodd" clip-rule="evenodd" d="M248.991 238.475C248.991 223.107 236.455 210.65 220.991 210.65C205.527 210.65 192.991 223.107 192.991 238.475C192.991 253.842 248.991 253.842 248.991 238.475Z" fill="#FF6C37"/>
<mask id="mask5" mask-type="alpha" maskUnits="userSpaceOnUse" x="192" y="210" width="57" height="40">
<path fill-rule="evenodd" clip-rule="evenodd" d="M248.991 238.475C248.991 223.107 236.455 210.65 220.991 210.65C205.527 210.65 192.991 223.107 192.991 238.475C192.991 253.842 248.991 253.842 248.991 238.475Z" fill="white"/>
</mask>
<g mask="url(#mask5)">
<path fill-rule="evenodd" clip-rule="evenodd" d="M193.132 237.658C205.136 243.269 238.519 232.583 242.569 221.103C246.646 225.936 249.102 232.167 249.102 238.968C249.102 254.335 193.102 254.335 193.102 238.968C193.102 238.529 193.112 238.092 193.132 237.658Z" fill="#FF6C37" fill-opacity="0.3" style="mix-blend-mode:multiply"/>
<path d="M220.991 216C227.741 216 233.213 214.097 233.213 211.75C233.213 209.403 227.741 207.5 220.991 207.5C214.241 207.5 208.769 209.403 208.769 211.75C208.769 214.097 214.241 216 220.991 216Z" fill="#E24F30"/>
</g>
<path fill-rule="evenodd" clip-rule="evenodd" d="M220.991 214.406C230.011 214.406 237.324 207.152 237.324 198.203C237.324 189.254 230.011 182 220.991 182C211.97 182 204.657 189.254 204.657 198.203C204.657 207.152 211.97 214.406 220.991 214.406Z" fill="#FF6C37"/>
<mask id="mask6" mask-type="alpha" maskUnits="userSpaceOnUse" x="204" y="182" width="34" height="33">
<path fill-rule="evenodd" clip-rule="evenodd" d="M220.991 214.406C230.011 214.406 237.324 207.152 237.324 198.203C237.324 189.254 230.011 182 220.991 182C211.97 182 204.657 189.254 204.657 198.203C204.657 207.152 211.97 214.406 220.991 214.406Z" fill="white"/>
</mask>
<g mask="url(#mask6)">
<path fill-rule="evenodd" clip-rule="evenodd" d="M232.879 190.917C232.879 199.866 225.567 207.12 216.546 207.12C212.476 207.12 208.753 205.643 205.893 203.2C208.016 209.704 214.172 214.406 221.435 214.406C230.456 214.406 237.768 207.152 237.768 198.203C237.768 193.292 235.566 188.892 232.088 185.92C232.602 187.494 232.879 189.174 232.879 190.917Z" fill="#FF6C37" fill-opacity="0.3" style="mix-blend-mode:multiply"/>
</g>
<path fill-rule="evenodd" clip-rule="evenodd" d="M329.991 238.475C329.991 223.107 317.455 210.65 301.991 210.65C286.527 210.65 273.991 223.107 273.991 238.475C273.991 253.842 329.991 253.842 329.991 238.475Z" fill="#FF6C37"/>
<mask id="mask7" mask-type="alpha" maskUnits="userSpaceOnUse" x="273" y="210" width="57" height="40">
<path fill-rule="evenodd" clip-rule="evenodd" d="M329.991 238.475C329.991 223.107 317.455 210.65 301.991 210.65C286.527 210.65 273.991 223.107 273.991 238.475C273.991 253.842 329.991 253.842 329.991 238.475Z" fill="white"/>
</mask>
<g mask="url(#mask7)">
<path fill-rule="evenodd" clip-rule="evenodd" d="M274.132 237.658C286.136 243.269 319.519 232.583 323.569 221.103C327.646 225.936 330.102 232.167 330.102 238.968C330.102 254.335 274.102 254.335 274.102 238.968C274.102 238.529 274.112 238.092 274.132 237.658Z" fill="#FF6C37" fill-opacity="0.3" style="mix-blend-mode:multiply"/>
<path d="M301.991 216C308.741 216 314.213 214.097 314.213 211.75C314.213 209.403 308.741 207.5 301.991 207.5C295.241 207.5 289.769 209.403 289.769 211.75C289.769 214.097 295.241 216 301.991 216Z" fill="#E24F30"/>
</g>
<path fill-rule="evenodd" clip-rule="evenodd" d="M301.991 214.406C311.011 214.406 318.324 207.152 318.324 198.203C318.324 189.254 311.011 182 301.991 182C292.97 182 285.657 189.254 285.657 198.203C285.657 207.152 292.97 214.406 301.991 214.406Z" fill="#FF6C37"/>
<mask id="mask8" mask-type="alpha" maskUnits="userSpaceOnUse" x="285" y="182" width="34" height="33">
<path fill-rule="evenodd" clip-rule="evenodd" d="M301.991 214.406C311.011 214.406 318.324 207.152 318.324 198.203C318.324 189.254 311.011 182 301.991 182C292.97 182 285.657 189.254 285.657 198.203C285.657 207.152 292.97 214.406 301.991 214.406Z" fill="white"/>
</mask>
<g mask="url(#mask8)">
<path fill-rule="evenodd" clip-rule="evenodd" d="M313.879 190.917C313.879 199.866 306.567 207.12 297.546 207.12C293.476 207.12 289.753 205.643 286.893 203.2C289.016 209.704 295.172 214.406 302.435 214.406C311.456 214.406 318.768 207.152 318.768 198.203C318.768 193.292 316.566 188.892 313.088 185.92C313.602 187.494 313.879 189.174 313.879 190.917Z" fill="#FF6C37" fill-opacity="0.3" style="mix-blend-mode:multiply"/>
</g>
<defs>
<clipPath id="clip0">
<rect width="244.3" height="37.1" fill="white" transform="translate(58.9907 138)"/>
</clipPath>
</defs>
</svg>
